<svg width="35" height="34" viewBox="0 0 35 34" fill="none" xmlns="http://www.w3.org/2000/svg">
<path d="M20.1188 31.7227L18.3847 33.4511C17.6504 34.183 16.463 34.183 15.7365 33.4511L0.55072 18.3236C-0.183573 17.5917 -0.183573 16.4083 0.55072 15.6842L15.7365 0.548889C16.4708 -0.182963 17.6582 -0.182963 18.3847 0.548889L20.1188 2.27731C20.861 3.01695 20.8453 4.22372 20.0876 4.94779L10.6746 13.8857H33.1252C34.1642 13.8857 35 14.7188 35 15.7543V18.2457C35 19.2812 34.1642 20.1143 33.1252 20.1143H10.6746L20.0876 29.0522C20.8531 29.7763 20.8688 30.9831 20.1188 31.7227Z" fill="black"/>
</svg>
