<svg width="544" height="548" viewBox="0 0 544 548" fill="none" xmlns="http://www.w3.org/2000/svg">
<g clip-path="url(#clip0_2_310)">
<path d="M137.226 525.867C136.626 525.894 136.032 525.737 135.524 525.415C135.016 525.094 134.62 524.624 134.388 524.07C134.156 523.515 134.1 522.903 134.228 522.316C134.356 521.729 134.661 521.195 135.102 520.788C135.176 520.494 135.229 520.283 135.303 519.989C134.729 518.53 133.732 517.276 132.44 516.387C131.147 515.498 129.619 515.015 128.051 515.001C126.483 514.986 124.946 515.44 123.637 516.304C122.329 517.168 121.308 518.404 120.706 519.852C117.233 527.981 112.738 536.396 114.973 545.35C100.207 514.057 105.229 475.131 127.052 448.37C133.084 445.047 137.973 439.144 139.246 432.29C136.26 433.301 132.538 430.873 134.783 427.729C135.756 426.527 136.738 425.335 137.711 424.133C126.371 412.057 112.859 431.036 125.341 447.335C121.258 452.454 117.721 457.986 114.788 463.841C115.465 457.624 114.657 451.336 112.429 445.492C110.172 440.046 105.94 435.46 102.214 430.752C97.6832 425.016 88.3583 427.662 87.7486 434.942C91.9299 436.316 92.4731 442.355 87.6902 443.182C88.943 456.724 97.7909 469.169 109.977 475.108C105.477 487.734 103.72 501.174 104.823 514.533C102.671 498.921 85.9117 495.132 74.1974 488.927C73.4518 488.449 72.5832 488.198 71.6975 488.205C70.8118 488.212 69.9473 488.477 69.2095 488.967C68.4717 489.457 67.8925 490.151 67.5424 490.965C67.1924 491.778 67.0867 492.676 67.2383 493.549C68.8551 494.206 70.4026 495.022 71.858 495.986C72.54 496.444 73.0635 497.102 73.3567 497.87C73.6499 498.638 73.6985 499.477 73.4958 500.273C73.2931 501.07 72.8491 501.784 72.2246 502.318C71.6001 502.852 70.8256 503.18 70.0075 503.257C75.9122 517.87 91.1784 527.682 106.858 527.627C108.364 534.174 110.548 540.547 113.372 546.643H136.643C136.727 546.384 136.802 546.117 136.877 545.859C134.723 545.994 132.56 545.865 130.438 545.475C136.136 538.728 140.544 535.286 137.227 525.867L137.226 525.867Z" fill="#F2F2F2"/>
<path d="M344.694 525.867C345.294 525.894 345.888 525.737 346.396 525.415C346.904 525.094 347.3 524.624 347.532 524.07C347.764 523.515 347.82 522.903 347.692 522.316C347.564 521.729 347.259 521.195 346.818 520.788C346.744 520.494 346.691 520.283 346.617 519.989C347.191 518.53 348.189 517.276 349.481 516.387C350.773 515.498 352.301 515.015 353.869 515.001C355.437 514.986 356.974 515.44 358.283 516.304C359.591 517.168 360.612 518.404 361.214 519.852C364.687 527.981 369.182 536.396 366.947 545.35C381.713 514.057 376.691 475.131 354.869 448.37C348.837 445.047 343.947 439.144 342.675 432.29C345.66 433.301 349.382 430.873 347.137 427.729C346.164 426.527 345.182 425.335 344.209 424.133C355.55 412.057 369.061 431.036 356.579 447.335C360.662 452.454 364.199 457.986 367.132 463.841C366.455 457.624 367.263 451.336 369.491 445.492C371.748 440.046 375.98 435.46 379.706 430.752C384.237 425.016 393.562 427.662 394.172 434.942C389.99 436.316 389.447 442.355 394.23 443.182C392.977 456.724 384.129 469.169 371.943 475.108C376.443 487.734 378.2 501.174 377.098 514.533C379.249 498.921 396.008 495.132 407.723 488.927C408.468 488.449 409.337 488.198 410.223 488.205C411.108 488.212 411.973 488.477 412.711 488.967C413.448 489.457 414.028 490.151 414.378 490.965C414.728 491.778 414.833 492.676 414.682 493.549C413.065 494.206 411.518 495.022 410.062 495.986C409.38 496.444 408.857 497.102 408.563 497.87C408.27 498.638 408.222 499.477 408.424 500.273C408.627 501.07 409.071 501.784 409.696 502.318C410.32 502.852 411.095 503.18 411.913 503.257C406.008 517.87 390.742 527.682 375.062 527.627C373.556 534.174 371.372 540.547 368.548 546.643H345.277C345.193 546.384 345.118 546.117 345.043 545.859C347.197 545.994 349.36 545.865 351.483 545.475C345.784 538.728 341.376 535.286 344.693 525.867L344.694 525.867Z" fill="#F2F2F2"/>
<path d="M353.322 529.322L343.301 531.601L329.736 494.033L344.528 490.668L353.322 529.322Z" fill="#FFB6B6"/>
<path d="M356.055 539.695L325.236 546.706L325.147 546.317C324.424 543.136 324.993 539.797 326.731 537.036C328.468 534.275 331.232 532.317 334.413 531.593L334.414 531.593L339.071 526.042L350.546 527.923L353.237 527.31L356.055 539.695Z" fill="#2F2E41"/>
<path d="M514.991 346.204L520.5 354.879L489.656 380.259L481.525 367.454L514.991 346.204Z" fill="#FFB6B6"/>
<path d="M523.848 340.15L540.791 366.828L540.454 367.043C537.7 368.792 534.364 369.375 531.179 368.664C527.995 367.954 525.223 366.007 523.474 363.254L523.474 363.253L516.681 360.728L514.604 349.288L513.125 346.959L523.848 340.15Z" fill="#2F2E41"/>
<path d="M195.53 253.45L193.055 239.104L230.687 222.113L238.814 207.725C238.551 206.463 238.643 205.152 239.079 203.939C239.514 202.725 240.277 201.655 241.283 200.848C242.288 200.04 243.497 199.526 244.776 199.363C246.055 199.199 247.355 199.393 248.531 199.921C249.708 200.45 250.715 201.293 251.442 202.358C252.169 203.423 252.587 204.669 252.651 205.957C252.715 207.244 252.421 208.525 251.802 209.656C251.184 210.788 250.265 211.727 249.146 212.369L235.777 233.036L195.53 253.45Z" fill="#A0616A"/>
<path d="M184.091 241.723L201.038 233.067L205.524 249.91L193.753 258.635L184.091 241.723Z" fill="#6C63FF"/>
<path d="M146.064 528.017L156.31 528.016L161.185 488.497L146.061 488.497L146.064 528.017Z" fill="#A0616A"/>
<path d="M159.72 528.939V521.993L157.026 522.158L146.06 522.807L143.523 522.963L141.582 546.226L141.479 547.473H148.754L148.988 546.235L150.045 540.605L152.773 546.235L153.371 547.473H172.66C173.808 547.466 174.907 547.006 175.718 546.194C176.528 545.381 176.986 544.282 176.991 543.134C177.805 539.332 161.764 531.113 159.72 528.939Z" fill="#2F2E41"/>
<path d="M24.4321 371.179L22.0435 381.143L59.3409 395.097L62.8658 380.392L24.4321 371.179Z" fill="#A0616A"/>
<path d="M21.162 384.243L27.9171 385.863L28.3852 383.205L30.3102 372.392L30.7503 369.887L8.57895 362.577L7.39028 362.185L5.69386 369.26L6.8438 369.776L12.0723 372.116L5.96126 373.456L4.61744 373.749L0.11996 392.505C-0.140606 393.622 0.0503367 394.798 0.651363 395.776C1.25239 396.754 2.21495 397.455 3.33001 397.727C6.83781 399.406 18.5713 385.724 21.162 384.243Z" fill="#2F2E41"/>
<path d="M161.907 272.248L148.718 266.083L122.416 297.91L106.395 301.961C105.246 301.376 103.958 301.119 102.672 301.22C101.387 301.32 100.154 301.774 99.11 302.532C98.0662 303.289 97.252 304.32 96.7575 305.511C96.2629 306.702 96.1071 308.006 96.3074 309.28C96.5077 310.554 97.0562 311.748 97.8924 312.729C98.7286 313.711 99.8198 314.443 101.046 314.843C102.272 315.244 103.584 315.298 104.839 314.999C106.093 314.7 107.241 314.061 108.155 313.151L131.614 305.696L161.907 272.248Z" fill="#A0616A"/>
<path d="M348.892 154.428C346.096 154.428 343.363 153.599 341.039 152.046C338.714 150.493 336.903 148.285 335.833 145.703C334.763 143.12 334.483 140.278 335.028 137.537C335.574 134.795 336.92 132.276 338.897 130.3C340.874 128.323 343.392 126.977 346.134 126.431C348.876 125.886 351.718 126.166 354.301 127.236C356.884 128.306 359.092 130.117 360.645 132.442C362.198 134.766 363.027 137.499 363.027 140.294C363.023 144.041 361.532 147.634 358.882 150.284C356.232 152.933 352.64 154.424 348.892 154.428ZM348.892 127.782C346.417 127.782 343.998 128.516 341.94 129.891C339.882 131.265 338.278 133.22 337.331 135.506C336.384 137.792 336.136 140.308 336.619 142.735C337.102 145.162 338.294 147.391 340.044 149.141C341.794 150.891 344.023 152.083 346.451 152.566C348.878 153.048 351.394 152.801 353.681 151.854C355.967 150.907 357.921 149.303 359.296 147.245C360.671 145.188 361.405 142.769 361.405 140.294C361.401 136.977 360.082 133.796 357.736 131.451C355.39 129.105 352.209 127.786 348.892 127.782Z" fill="#E6E6E6"/>
<path d="M347.894 145.619C347.866 145.619 347.838 145.618 347.809 145.616C347.558 145.604 347.313 145.538 347.09 145.422C346.867 145.306 346.672 145.144 346.518 144.945L344.291 142.083C344.15 141.902 344.047 141.696 343.986 141.475C343.925 141.254 343.908 141.024 343.937 140.796C343.965 140.569 344.038 140.35 344.151 140.151C344.264 139.952 344.416 139.777 344.596 139.637L344.677 139.574C344.857 139.434 345.064 139.33 345.285 139.269C345.506 139.208 345.736 139.192 345.963 139.22C346.191 139.248 346.41 139.321 346.609 139.435C346.808 139.548 346.983 139.699 347.124 139.88C347.236 140.024 347.378 140.143 347.541 140.227C347.703 140.311 347.882 140.36 348.065 140.369C348.248 140.377 348.43 140.347 348.6 140.279C348.77 140.211 348.923 140.107 349.049 139.974L353.57 135.201C353.888 134.866 354.327 134.671 354.789 134.658C355.251 134.646 355.699 134.817 356.035 135.134L356.109 135.205C356.275 135.362 356.409 135.551 356.502 135.76C356.596 135.969 356.647 136.194 356.653 136.423C356.659 136.652 356.62 136.88 356.538 137.094C356.456 137.307 356.333 137.503 356.176 137.669L349.16 145.074C348.997 145.246 348.801 145.383 348.583 145.477C348.366 145.57 348.131 145.619 347.894 145.619Z" fill="#E6E6E6"/>
<path d="M278.328 325.551C275.533 325.551 272.8 324.722 270.475 323.169C268.151 321.616 266.339 319.408 265.269 316.826C264.199 314.243 263.919 311.401 264.465 308.659C265.01 305.918 266.356 303.399 268.333 301.422C270.31 299.446 272.829 298.1 275.571 297.554C278.313 297.009 281.155 297.289 283.738 298.359C286.32 299.428 288.528 301.24 290.081 303.564C291.634 305.889 292.463 308.621 292.463 311.417C292.459 315.164 290.969 318.757 288.319 321.406C285.669 324.056 282.076 325.547 278.328 325.551ZM278.328 298.905C275.853 298.905 273.434 299.639 271.376 301.013C269.319 302.388 267.715 304.342 266.768 306.629C265.821 308.915 265.573 311.431 266.056 313.858C266.538 316.285 267.73 318.514 269.48 320.264C271.23 322.014 273.46 323.206 275.887 323.688C278.314 324.171 280.83 323.923 283.117 322.976C285.403 322.029 287.358 320.426 288.732 318.368C290.107 316.31 290.841 313.891 290.841 311.417C290.838 308.1 289.518 304.919 287.172 302.574C284.826 300.228 281.646 298.909 278.328 298.905Z" fill="#E6E6E6"/>
<path d="M277.331 316.742C277.302 316.742 277.274 316.741 277.245 316.739C276.995 316.727 276.749 316.661 276.526 316.545C276.303 316.429 276.108 316.267 275.954 316.068L273.727 313.206C273.587 313.025 273.483 312.818 273.422 312.598C273.361 312.377 273.345 312.146 273.373 311.919C273.401 311.692 273.474 311.473 273.588 311.274C273.701 311.075 273.852 310.9 274.033 310.759L274.113 310.697C274.294 310.556 274.5 310.453 274.721 310.392C274.942 310.331 275.172 310.314 275.4 310.343C275.627 310.371 275.846 310.444 276.045 310.557C276.245 310.671 276.419 310.822 276.56 311.003C276.672 311.147 276.815 311.266 276.977 311.35C277.14 311.434 277.318 311.482 277.501 311.491C277.684 311.5 277.867 311.47 278.036 311.401C278.206 311.333 278.359 311.229 278.485 311.097L283.006 306.324C283.325 305.989 283.763 305.793 284.225 305.781C284.687 305.768 285.135 305.94 285.471 306.257L285.545 306.328C285.712 306.485 285.845 306.674 285.939 306.883C286.032 307.092 286.083 307.317 286.089 307.546C286.095 307.775 286.056 308.003 285.975 308.216C285.893 308.43 285.769 308.626 285.612 308.792L278.596 316.197C278.433 316.369 278.237 316.506 278.019 316.6C277.802 316.693 277.568 316.742 277.331 316.742Z" fill="#E6E6E6"/>
<path d="M123.412 134.964C120.617 134.964 117.884 134.135 115.559 132.582C113.235 131.029 111.423 128.821 110.353 126.238C109.283 123.656 109.003 120.814 109.549 118.072C110.094 115.33 111.44 112.812 113.417 110.835C115.394 108.859 117.913 107.513 120.655 106.967C123.397 106.422 126.239 106.702 128.822 107.771C131.405 108.841 133.612 110.653 135.165 112.977C136.719 115.301 137.548 118.034 137.548 120.83C137.543 124.577 136.053 128.17 133.403 130.819C130.753 133.469 127.16 134.959 123.412 134.964ZM123.412 108.318C120.938 108.318 118.518 109.051 116.461 110.426C114.403 111.801 112.799 113.755 111.852 116.041C110.905 118.328 110.657 120.844 111.14 123.271C111.623 125.698 112.814 127.927 114.564 129.677C116.314 131.427 118.544 132.618 120.971 133.101C123.399 133.584 125.915 133.336 128.201 132.389C130.487 131.442 132.442 129.839 133.817 127.781C135.192 125.723 135.926 123.304 135.926 120.83C135.922 117.512 134.602 114.332 132.256 111.986C129.911 109.641 126.73 108.321 123.412 108.318Z" fill="#E6E6E6"/>
<path d="M122.415 126.154C122.386 126.154 122.358 126.153 122.33 126.152C122.079 126.14 121.833 126.074 121.61 125.958C121.387 125.842 121.192 125.679 121.038 125.481L118.811 122.619C118.671 122.438 118.567 122.231 118.506 122.011C118.446 121.79 118.429 121.559 118.457 121.332C118.486 121.105 118.559 120.886 118.672 120.687C118.785 120.488 118.936 120.313 119.117 120.172L119.197 120.11C119.378 119.969 119.584 119.865 119.805 119.805C120.026 119.744 120.257 119.727 120.484 119.756C120.711 119.784 120.931 119.857 121.13 119.97C121.329 120.083 121.503 120.235 121.644 120.416C121.756 120.56 121.899 120.678 122.061 120.763C122.224 120.847 122.402 120.895 122.585 120.904C122.768 120.913 122.951 120.882 123.121 120.814C123.29 120.746 123.444 120.642 123.57 120.509L128.091 115.737C128.409 115.402 128.847 115.206 129.309 115.194C129.771 115.181 130.219 115.352 130.555 115.67L130.63 115.74C130.796 115.898 130.929 116.086 131.023 116.296C131.116 116.505 131.167 116.73 131.173 116.959C131.18 117.188 131.141 117.416 131.059 117.629C130.977 117.843 130.854 118.039 130.696 118.205L123.68 125.61C123.517 125.782 123.321 125.919 123.104 126.012C122.886 126.106 122.652 126.154 122.415 126.154Z" fill="#E6E6E6"/>
<path d="M236.579 378.103C203.801 378.103 166.131 341.732 132.803 359.013C31.8924 411.334 45.7833 323.782 16.7926 291.221L17.7444 289.312C49.7323 317.992 89.6702 341.327 133.241 356.792C172.615 370.77 212.284 377.246 247.946 375.537L248.008 377.831C244.242 378.013 240.432 378.103 236.579 378.103Z" fill="#F2F2F2"/>
<path d="M191.616 132.197C195.4 132.197 198.468 128.084 198.468 123.01C198.468 117.937 195.4 113.824 191.616 113.824C187.832 113.824 184.765 117.937 184.765 123.01C184.765 128.084 187.832 132.197 191.616 132.197Z" fill="#E6E6E6"/>
<path d="M270.75 275.511C267.618 277.597 264.412 272.631 267.605 270.636C270.737 268.55 273.943 273.517 270.75 275.511Z" fill="#E6E6E6"/>
<path d="M252.721 108.294C257.648 108.294 261.643 104.3 261.643 99.373C261.643 94.446 257.648 90.4519 252.721 90.4519C247.793 90.4519 243.799 94.446 243.799 99.373C243.799 104.3 247.793 108.294 252.721 108.294Z" fill="#FF6584"/>
<path opacity="0.3" d="M283.926 148.26L334.694 0L278.948 146.485C278.672 146.833 278.483 147.241 278.397 147.676C278.311 148.112 278.329 148.561 278.451 148.988C278.574 149.414 278.796 149.806 279.099 150.129C279.403 150.453 279.78 150.699 280.198 150.848C280.616 150.997 281.063 151.044 281.503 150.986C281.943 150.927 282.362 150.765 282.727 150.512C283.091 150.259 283.39 149.923 283.599 149.531C283.807 149.139 283.92 148.703 283.926 148.26H283.926Z" fill="#F0F0F0"/>
<path d="M232.682 328.883C237.476 328.883 241.362 324.997 241.362 320.204C241.362 315.41 237.476 311.524 232.682 311.524C227.888 311.524 224.002 315.41 224.002 320.204C224.002 324.997 227.888 328.883 232.682 328.883Z" fill="#F2F2F2"/>
<path d="M148.61 323.514C148.61 323.514 126.97 337.604 132.692 346.967C132.889 347.29 106.843 381.687 106.843 381.687L57.6742 378.566L55.9418 395.022L99.7156 407.699C99.7156 407.699 110.424 415.565 118.697 406.898C126.97 398.23 154.526 371.687 154.526 371.687L155.855 425.276L142.022 499.535L162.676 498.225L182.779 423.726L190.199 339.337L148.61 323.514Z" fill="#2F2E41"/>
<path d="M164.024 238.952L154.924 245.848L144.552 267.983L154.526 281.527C154.526 281.527 162.915 296.066 149.487 310.146C136.058 324.226 125.746 339.263 136.494 338.726C147.243 338.19 190.776 360.329 191.062 342.191C191.349 324.052 191.928 310.146 191.928 310.146L203.342 281.2C203.342 281.2 210.141 263.932 205.367 258.764C200.593 253.595 194.201 246.99 194.201 246.99L182.577 235.366H172.08L164.024 238.952Z" fill="#6C63FF"/>
<path d="M181.012 196.421C201.427 208.037 184.667 238.686 163.871 227.772C143.457 216.157 160.217 185.508 181.012 196.421Z" fill="#A0616A"/>
<path d="M191.928 202.862C190.498 204.722 187.509 203.85 181.657 205.177C181.669 203.194 181.44 201.216 180.974 199.288C180.539 201.675 179.584 203.938 178.179 205.916C173.097 206.48 179.326 221.917 176.724 233.267C173.372 209.322 166.32 215.595 169.883 220.345C172.163 223.385 170.643 232.507 163.801 227.946C152.513 233.311 136.434 206.663 154.254 194.165C153.936 187.41 161.453 186.343 166.082 188.419C177.316 180.052 190.15 190.774 191.928 202.862Z" fill="#2F2E41"/>
<path d="M139.547 185.389C135.002 213.332 110.641 180.25 99.1858 207.749C95.5843 217.707 101.764 224.831 105.672 233.097C106.564 239.89 97.7263 243.337 96.8006 249.59C96.5429 263.925 119.673 263.048 126.139 254.004C132.783 244.536 124.849 231.833 128.843 221.67C134.456 207.561 157.282 207.456 159.271 191.041C155.419 185.557 145.063 179.276 139.547 185.389Z" fill="#2F2E41"/>
<path d="M157.96 188.12C157.811 188.183 157.662 188.245 157.529 188.316H157.522C157.396 188.378 157.271 188.441 157.146 188.511C157.13 188.519 157.123 188.527 157.107 188.535C156.943 188.378 156.778 188.222 156.606 188.065C156.561 188.32 156.572 188.582 156.637 188.832L156.661 188.926C156.817 189.09 156.982 189.247 157.154 189.411C157.31 189.294 157.459 189.169 157.616 189.051C157.71 188.973 157.803 188.895 157.905 188.816C157.921 188.613 157.944 188.378 157.968 188.12L157.96 188.12ZM162.671 179.418C159.181 178.62 158.054 183.182 157.717 185.381C156.449 177.399 151.175 179.911 152.998 185.358C153.579 186.97 154.494 188.442 155.683 189.677C155.847 189.865 156.027 190.053 156.215 190.241C156.003 191.336 157.068 191.054 158.508 190.045C159.571 189.289 160.554 188.426 161.442 187.47C164.315 184.458 166.553 180.428 162.671 179.418ZM162.781 183.91C161.704 185.298 160.496 186.58 159.173 187.737C158.758 188.112 158.336 188.472 157.905 188.816C157.897 188.887 157.897 188.949 157.889 189.004C157.859 189.08 157.823 189.154 157.78 189.223C157.342 190.014 156.849 189.583 156.661 188.926C156.645 188.903 156.622 188.879 156.606 188.856C155.981 188.21 155.437 187.49 154.986 186.711C151.754 181.109 156.958 177.298 156.7 187.76C156.652 187.856 156.621 187.959 156.606 188.065C156.561 188.32 156.572 188.582 156.637 188.832L156.661 188.926C156.817 189.09 156.982 189.247 157.154 189.411C157.31 189.294 157.459 189.169 157.616 189.051C157.71 188.973 157.803 188.895 157.905 188.816C157.921 188.613 157.944 188.378 157.968 188.12V188.112C158.171 186.015 158.727 182.243 159.752 181.218C162.006 179.489 164.925 181.359 162.781 183.91ZM157.96 188.12C157.811 188.183 157.662 188.245 157.529 188.316H157.522C157.396 188.378 157.271 188.441 157.146 188.511C157.13 188.519 157.123 188.527 157.107 188.535C156.943 188.378 156.778 188.222 156.606 188.065C156.561 188.32 156.572 188.582 156.637 188.832L156.661 188.926C156.817 189.09 156.982 189.247 157.154 189.411C157.31 189.294 157.459 189.169 157.616 189.051C157.71 188.973 157.803 188.895 157.905 188.816C157.921 188.613 157.944 188.378 157.968 188.12L157.96 188.12Z" fill="#2F2E41"/>
<path d="M346.652 342.179L339.112 361.84L303.742 431.603L334.821 512.759L350.861 508.525L337.641 431.603L375.57 385.522L420.614 416.07C420.614 416.07 440.59 431.664 448.19 416.881C455.79 402.098 504.966 370.654 504.966 370.654L492.8 357.677L436.171 384.176L397.086 329.167L346.652 342.179Z" fill="#2F2E41"/>
<path d="M384.696 249.437L372.285 236.103L350.994 233.174L324.907 251.435L325.169 271.648L338.065 319.278C338.065 319.278 333.153 353.498 346.874 353.155C360.594 352.812 368.072 345.972 373.661 347.364C379.249 348.756 403.003 354.682 404.509 348.475C406.014 342.268 414.016 346.713 413.665 340.841C413.314 334.969 392.002 292.645 392.002 292.645L397.301 250.317L384.696 249.437Z" fill="#4E4A85"/>
<path d="M463.283 188.059C463.394 189.165 463.261 190.281 462.894 191.33C462.527 192.379 461.934 193.335 461.157 194.13C460.381 194.925 459.439 195.54 458.399 195.932C457.359 196.324 456.246 196.483 455.138 196.398L426.595 250.676L418.932 238.914L448.106 187.687C448.372 185.835 449.309 184.145 450.738 182.937C452.167 181.729 453.989 181.087 455.86 181.133C457.73 181.179 459.519 181.909 460.887 183.185C462.255 184.462 463.108 186.196 463.283 188.059Z" fill="#FFB6B6"/>
<path d="M373.428 259.529C373.428 259.529 372.296 269.184 383.166 271.574C394.036 273.964 424.152 256.758 429.089 254.13C430.635 253.307 432.733 249.273 434.885 244.12C435.852 241.807 436.829 239.268 437.772 236.692C438.318 235.202 440.932 234.795 441.447 233.317C441.958 231.847 440.371 229.306 440.834 227.921C443.033 221.345 444.591 216.129 444.591 216.129L437.386 202.596C427.31 207.923 422.142 219.656 418.341 233.173L373.428 259.529Z" fill="#4E4A85"/>
<path d="M246.478 200.524C246.647 201.622 247.055 202.67 247.674 203.594C248.292 204.517 249.105 205.294 250.055 205.87C251.006 206.445 252.072 206.805 253.177 206.924C254.282 207.043 255.4 206.919 256.451 206.559L297.67 251.968L302.145 238.662L261.079 196.366C260.357 194.639 259.028 193.237 257.342 192.425C255.656 191.613 253.731 191.448 251.931 191.96C250.132 192.473 248.583 193.628 247.578 195.206C246.572 196.784 246.181 198.676 246.478 200.524Z" fill="#FFB6B6"/>
<path d="M351.361 247.234C351.361 247.234 354.873 256.299 344.947 261.333C335.021 266.367 301.558 257.244 296.12 255.935C294.417 255.525 291.377 252.145 288.003 247.694C286.488 245.696 284.907 243.483 283.349 241.226C282.447 239.919 279.814 240.18 278.946 238.877C278.083 237.582 278.984 234.724 278.189 233.499C274.414 227.683 271.6 223.023 271.6 223.023L275.189 208.118C286.277 210.754 294.218 220.82 301.281 232.956L351.361 247.234Z" fill="#4E4A85"/>
<path d="M362.064 229.782C373.252 229.782 382.322 220.713 382.322 209.526C382.322 198.339 373.252 189.271 362.064 189.271C350.876 189.271 341.807 198.339 341.807 209.526C341.807 220.713 350.876 229.782 362.064 229.782Z" fill="#FFB6B6"/>
<path d="M385.188 197.928C383.057 194.632 379.059 192.435 375.182 193.052C374.821 190.579 373.789 188.251 372.197 186.324C370.605 184.396 368.514 182.942 366.153 182.121C363.792 181.299 361.251 181.14 358.806 181.663C356.361 182.185 354.106 183.368 352.287 185.083C351.689 184.662 350.992 184.402 350.264 184.329C349.536 184.257 348.802 184.373 348.132 184.667C346.798 185.274 345.637 186.205 344.756 187.377C342.532 190.15 341.101 193.475 340.617 196.998C340.132 200.52 340.612 204.107 342.005 207.379C341.531 205.657 343.257 204.036 345.001 203.65C346.745 203.264 348.574 203.629 350.342 203.377C352.609 203.055 354.646 201.74 356.917 201.444C358.842 201.319 360.773 201.567 362.604 202.175C364.434 202.783 366.363 203.042 368.289 202.938C370.199 202.712 372.661 209.952 372.628 215.052C372.621 216.018 372.82 217.259 373.765 217.464C374.928 217.716 375.602 216.111 376.709 215.674C377.22 215.527 377.767 215.585 378.235 215.834C378.704 216.083 379.058 216.505 379.222 217.01C379.361 217.523 379.376 218.062 379.265 218.582C379.154 219.102 378.921 219.588 378.584 220C377.903 220.816 377.096 221.516 376.192 222.075L376.648 222.454C377.08 222.911 377.659 223.204 378.284 223.282C378.909 223.359 379.541 223.217 380.073 222.88C381.118 222.172 381.964 221.208 382.532 220.08C384.668 216.776 386.196 213.115 387.042 209.272C387.756 205.413 387.319 201.225 385.188 197.928Z" fill="#2F2E41"/>
<path d="M535.053 277.818C508.924 297.607 456.934 291.355 440.8 325.252C391.95 427.881 350.158 349.702 307.387 341.248L306.993 339.152C349.81 342.703 395.737 337.193 439.808 323.217C479.636 310.589 515.169 291.802 542.565 268.911L544 270.702C541.107 273.121 538.125 275.493 535.053 277.818Z" fill="#F2F2F2"/>
<path d="M424.58 546.617C423.957 548.46 68.6454 548.46 67.974 546.622C68.5955 544.774 423.907 544.774 424.58 546.617Z" fill="#CCCCCC"/>
</g>
<defs>
<clipPath id="clip0_2_310">
<rect width="544" height="548" fill="white"/>
</clipPath>
</defs>
</svg>
