<svg width="88" height="125" viewBox="0 0 88 125" fill="none" xmlns="http://www.w3.org/2000/svg">
<path d="M28.2225 84.4726L25.7096 83.5524C23.4594 82.7256 21.6311 81.0345 20.6257 78.8501C19.6204 76.6657 19.5201 74.1665 20.3469 71.9007L21.1242 69.7781C23.0493 64.5207 25.6513 60.4811 28.858 57.7719C32.6831 54.6552 36.8107 51.9339 41.1777 49.6496C44.0101 48.3154 46.7181 46.7279 49.2689 44.9065C51.1519 43.4554 52.5719 41.4829 53.3532 39.2333C55.2844 33.9594 52.8081 30.145 45.7825 27.5724C41.8691 26.1897 37.7824 25.3564 33.6381 25.0962C32.0447 24.9824 30.5009 24.4984 29.1281 23.6825C27.7553 22.8665 26.5909 21.7409 25.7267 20.3941C24.8625 19.0473 24.3221 17.5162 24.1478 15.9212C23.9736 14.3262 24.1704 12.7109 24.7227 11.2024L26.2961 6.90558C26.9652 5.05284 28.1541 3.43274 29.7187 2.24169C31.2832 1.05064 33.1564 0.339773 35.1109 0.195256C42.7514 -0.221959 50.3877 0.976023 57.5261 3.71176C65.0454 6.46517 71.3679 10.2215 76.3188 14.8761C81.2781 19.5404 84.6261 24.7827 86.2694 30.4577C87.9144 36.0973 87.6774 42.1299 85.5944 47.6364C83.4207 53.5726 79.9166 58.153 75.1797 61.2504C70.4933 64.3173 64.2984 67.2849 56.7667 70.0717C52.8148 71.4951 48.9534 73.1624 45.2046 75.064C42.7762 76.3114 40.7047 78.163 39.1885 80.4414C38.1258 82.3063 36.4407 83.7348 34.4329 84.4729C32.425 85.211 30.2245 85.2109 28.2225 84.4726Z" fill="#2B2956"/>
<path d="M12.2938 123.372L11.9575 123.249C7.72538 121.696 4.27223 118.556 2.35711 114.518C0.441988 110.481 0.221645 105.877 1.74453 101.718C3.26742 97.5591 6.4089 94.1859 10.4784 92.3399C14.5479 90.4939 19.2124 90.3261 23.4465 91.8735L23.7828 91.9967C25.881 92.7635 27.8103 93.929 29.4603 95.4266C31.1104 96.9243 32.4488 98.7246 33.3992 100.725C34.3495 102.725 34.8932 104.886 34.9991 107.084C35.105 109.282 34.7711 111.474 34.0164 113.535C33.2617 115.596 32.101 117.486 30.6007 119.096C29.1004 120.705 27.2899 122.004 25.2726 122.918C23.2553 123.831 21.0707 124.342 18.8438 124.42C16.6168 124.498 14.3911 124.142 12.2938 123.372Z" fill="#2B2956"/>
</svg>
