<svg width="86" height="133" viewBox="0 0 86 133" fill="none" xmlns="http://www.w3.org/2000/svg">
<path d="M58.5914 89.6958L61.2933 88.9487C63.7128 88.2767 65.7655 86.6665 67.0008 84.4713C68.2361 82.2762 68.5532 79.6754 67.8826 77.2395L67.2516 74.9573C65.6885 69.3047 63.3153 64.8661 60.1977 61.7648C56.469 58.1857 52.3909 54.9937 48.0258 52.2376C45.182 50.6038 42.4897 48.7162 39.9814 46.5978C38.1388 44.9226 36.8238 42.7425 36.1994 40.3274C34.6315 34.657 37.5411 30.8851 45.0949 28.7964C49.2982 27.6855 53.6357 27.1629 57.9847 27.2436C59.6579 27.2601 61.3109 26.8861 62.8135 26.1509C64.3162 25.4157 65.6275 24.3395 66.6442 23.0068C67.661 21.6742 68.3554 20.1216 68.6729 18.4711C68.9904 16.8207 68.9223 15.1175 68.4739 13.4956L67.1964 8.87577C66.6554 6.88454 65.5518 5.09201 64.0196 3.7155C62.4873 2.33898 60.5921 1.43757 58.5637 1.12054C50.6222 0.035447 42.5477 0.63706 34.8623 2.88648C26.7777 5.12198 19.8574 8.50632 14.2928 12.9451C8.71847 17.3933 4.77737 22.5819 2.5793 28.3671C0.382397 34.1154 0.117018 40.4338 1.82367 46.3599C3.5885 52.7424 6.85758 57.8224 11.5398 61.4589C16.172 65.0593 22.3875 68.6843 30.0141 72.234C34.019 74.0561 37.9088 76.1251 41.6611 78.4291C44.0904 79.9379 46.0957 82.0471 47.485 84.5548C48.4361 86.5922 50.0739 88.2268 52.1075 89.1681C54.141 90.1094 56.4384 90.2964 58.5914 89.6958Z" fill="#2B2956"/>
<path d="M71.9153 131.663L72.2768 131.563C76.8274 130.301 80.6996 127.316 83.0423 123.264C85.385 119.211 86.0064 114.423 84.77 109.951C83.5335 105.48 80.5404 101.691 76.4486 99.4179C72.3568 97.1446 67.5011 96.573 62.9489 97.8286L62.5874 97.9286C60.3315 98.5508 58.2182 99.6037 56.3681 101.027C54.5181 102.45 52.9677 104.216 51.8054 106.224C50.6432 108.231 49.8919 110.441 49.5945 112.727C49.297 115.013 49.4593 117.33 50.072 119.546C50.6848 121.762 51.736 123.833 53.1655 125.642C54.595 127.45 56.3749 128.96 58.4034 130.085C60.4319 131.21 62.6693 131.929 64.9877 132.199C67.3062 132.47 69.6602 132.288 71.9153 131.663Z" fill="#2B2956"/>
</svg>
