<svg width="192" height="46" viewBox="0 0 192 46" fill="none" xmlns="http://www.w3.org/2000/svg">
<path d="M12.128 4.536C13.6853 4.536 15.1147 4.824 16.416 5.4C17.7387 5.976 18.8693 6.776 19.808 7.8C20.768 8.80267 21.5147 9.99733 22.048 11.384C22.5813 12.7707 22.848 14.264 22.848 15.864C22.848 17.464 22.5813 18.9573 22.048 20.344C21.5147 21.7307 20.768 22.936 19.808 23.96C18.8693 24.9627 17.7387 25.752 16.416 26.328C15.1147 26.904 13.6853 27.192 12.128 27.192C11.2747 27.192 10.5173 27.1173 9.856 26.968C10.3253 27.3947 10.784 27.8427 11.232 28.312C11.7013 28.7813 12.2133 29.208 12.768 29.592C13.3227 29.9973 13.952 30.328 14.656 30.584C15.3813 30.8613 16.224 31 17.184 31C17.5253 31 17.8987 30.968 18.304 30.904C18.7307 30.8613 19.136 30.7653 19.52 30.616C19.904 30.4667 20.2453 30.2533 20.544 29.976C20.8427 29.6987 21.0453 29.3253 21.152 28.856L21.408 28.92C21.3013 29.6667 21.0773 30.2853 20.736 30.776C20.3947 31.288 19.9787 31.6933 19.488 31.992C19.0187 32.312 18.496 32.536 17.92 32.664C17.3653 32.8133 16.8 32.888 16.224 32.888C15.264 32.888 14.432 32.7173 13.728 32.376C13.0453 32.0347 12.4267 31.5973 11.872 31.064C11.3387 30.552 10.848 29.9973 10.4 29.4C9.952 28.8027 9.49333 28.2373 9.024 27.704C8.55467 27.192 8.04267 26.7653 7.488 26.424C6.95467 26.0827 6.31467 25.912 5.568 25.912C4.75733 25.912 4.16 26.1467 3.776 26.616C3.392 27.064 3.15733 27.7147 3.072 28.568L2.816 28.536C2.92267 27.4267 3.27467 26.6267 3.872 26.136C4.46933 25.6453 5.216 25.3893 6.112 25.368C4.64 24.3653 3.488 23.0427 2.656 21.4C1.824 19.7573 1.408 17.912 1.408 15.864C1.408 14.264 1.67467 12.7707 2.208 11.384C2.74133 9.99733 3.47733 8.80267 4.416 7.8C5.376 6.776 6.50667 5.976 7.808 5.4C9.13067 4.824 10.5707 4.536 12.128 4.536ZM4.128 15.864C4.128 17.6773 4.32 19.2667 4.704 20.632C5.088 21.976 5.632 23.1067 6.336 24.024C7.04 24.92 7.88267 25.592 8.864 26.04C9.84533 26.488 10.9333 26.712 12.128 26.712C13.3227 26.712 14.4107 26.488 15.392 26.04C16.3733 25.592 17.216 24.92 17.92 24.024C18.624 23.1067 19.168 21.976 19.552 20.632C19.936 19.2667 20.128 17.6773 20.128 15.864C20.128 14.0507 19.936 12.472 19.552 11.128C19.168 9.76267 18.624 8.632 17.92 7.736C17.216 6.81867 16.3733 6.136 15.392 5.688C14.4107 5.24 13.3227 5.016 12.128 5.016C10.9333 5.016 9.84533 5.24 8.864 5.688C7.88267 6.136 7.04 6.81867 6.336 7.736C5.632 8.632 5.088 9.76267 4.704 11.128C4.32 12.472 4.128 14.0507 4.128 15.864ZM25.3685 9.016L28.6325 8.728V21.72C28.6325 22.6373 28.7285 23.416 28.9205 24.056C29.1125 24.6747 29.3792 25.1867 29.7205 25.592C30.0832 25.976 30.5098 26.2533 31.0005 26.424C31.5125 26.5947 32.0672 26.68 32.6645 26.68C33.6245 26.68 34.4565 26.4667 35.1605 26.04C35.8645 25.592 36.4512 25.0267 36.9205 24.344C37.3898 23.6613 37.7525 22.904 38.0085 22.072C38.2645 21.24 38.4032 20.4293 38.4245 19.64V12.408C38.4245 11.96 38.4032 11.576 38.3605 11.256C38.3392 10.9147 38.2965 10.616 38.2325 10.36C38.1685 10.104 38.0725 9.86933 37.9445 9.656C37.8378 9.44267 37.6992 9.22933 37.5285 9.016L40.7925 8.728V23.832C40.7925 24.7707 40.8672 25.464 41.0165 25.912C41.1658 26.3387 41.3898 26.7013 41.6885 27L38.5525 27.096V22.264C38.2325 23.032 37.8805 23.7147 37.4965 24.312C37.1338 24.9093 36.7072 25.4213 36.2165 25.848C35.7258 26.2747 35.1498 26.6053 34.4885 26.84C33.8485 27.0533 33.1018 27.16 32.2485 27.16C30.4138 27.16 28.9525 26.7013 27.8645 25.784C26.7978 24.8667 26.2645 23.4587 26.2645 21.56V12.408C26.2645 11.96 26.2432 11.576 26.2005 11.256C26.1792 10.9147 26.1365 10.616 26.0725 10.36C26.0085 10.104 25.9125 9.86933 25.7845 9.656C25.6778 9.44267 25.5392 9.22933 25.3685 9.016ZM43.7085 27C44.0498 26.8933 44.3272 26.776 44.5405 26.648C44.7538 26.52 44.9245 26.36 45.0525 26.168C45.1805 25.9547 45.2658 25.688 45.3085 25.368C45.3512 25.048 45.3725 24.664 45.3725 24.216V12.408C45.3725 11.96 45.3512 11.576 45.3085 11.256C45.2872 10.9147 45.2445 10.616 45.1805 10.36C45.1165 10.104 45.0205 9.86933 44.8925 9.656C44.7858 9.44267 44.6472 9.22933 44.4765 9.016L47.7405 8.728V24.216C47.7405 24.664 47.7618 25.048 47.8045 25.368C47.8685 25.6667 47.9645 25.9227 48.0925 26.136C48.2205 26.3493 48.3912 26.52 48.6045 26.648C48.8178 26.776 49.0845 26.8933 49.4045 27H43.7085ZM46.4605 3.192C46.9512 3.192 47.3565 3.34133 47.6765 3.64C47.9965 3.91733 48.1565 4.30133 48.1565 4.792C48.1565 5.28267 47.9965 5.67733 47.6765 5.976C47.3565 6.27467 46.9512 6.424 46.4605 6.424C45.9912 6.424 45.5965 6.27467 45.2765 5.976C44.9565 5.67733 44.7965 5.28267 44.7965 4.792C44.7965 4.30133 44.9565 3.91733 45.2765 3.64C45.5965 3.34133 45.9912 3.192 46.4605 3.192ZM51.1743 27L62.5023 9.272H58.0223C57.3183 9.272 56.6356 9.32533 55.9743 9.432C55.3343 9.51733 54.7369 9.752 54.1823 10.136C53.6276 10.52 53.1369 11.1067 52.7103 11.896C52.2836 12.6853 51.9423 13.7733 51.6863 15.16L52.1663 8.92H65.2543L53.9263 26.648H59.5263C60.2303 26.648 60.8809 26.5733 61.4783 26.424C62.0756 26.2533 62.6196 25.912 63.1103 25.4C63.6009 24.8667 64.0489 24.0987 64.4543 23.096C64.8596 22.072 65.2116 20.7173 65.5103 19.032L64.9663 27H51.1743ZM78.8533 24.184V7.576C78.8533 7.10667 78.8213 6.72267 78.7573 6.424C78.7146 6.104 78.6293 5.83733 78.5013 5.624C78.3733 5.41067 78.1919 5.24 77.9573 5.112C77.7439 4.96267 77.4666 4.84533 77.1253 4.76H80.1973L89.8293 24.152L98.2133 4.76H102.053C101.392 4.97333 100.933 5.272 100.677 5.656C100.443 6.01867 100.325 6.65867 100.325 7.576V24.184C100.325 25.1013 100.443 25.752 100.677 26.136C100.933 26.4987 101.392 26.7867 102.053 27H96.1973C96.8799 26.808 97.3386 26.52 97.5733 26.136C97.8079 25.752 97.9253 25.1013 97.9253 24.184V6.936L89.1253 27H88.7413L79.3973 8.184V24.184C79.3973 25.1013 79.5146 25.752 79.7493 26.136C80.0053 26.4987 80.4639 26.7867 81.1253 27H77.1253C77.8079 26.808 78.2666 26.52 78.5013 26.136C78.7359 25.752 78.8533 25.1013 78.8533 24.184ZM112.05 17.08L115.602 16.216V13.912C115.602 12.312 115.282 11.1387 114.642 10.392C114.023 9.624 113.074 9.24 111.794 9.24C111.197 9.24 110.589 9.34667 109.97 9.56C109.351 9.752 108.765 10.1147 108.21 10.648C107.677 11.16 107.175 11.864 106.706 12.76C106.258 13.656 105.885 14.7867 105.586 16.152L105.394 10.808C106.183 10.1893 107.154 9.69867 108.306 9.336C109.458 8.97333 110.642 8.792 111.858 8.792C113.735 8.792 115.218 9.24 116.306 10.136C117.415 11.032 117.97 12.344 117.97 14.072V24.216C117.97 24.8347 118.034 25.3787 118.162 25.848C118.311 26.3173 118.546 26.7013 118.866 27L115.73 27.096V22.872C115.517 23.4053 115.239 23.928 114.898 24.44C114.578 24.952 114.173 25.4107 113.682 25.816C113.213 26.2213 112.647 26.5413 111.986 26.776C111.325 27.0107 110.567 27.128 109.714 27.128C108.946 27.128 108.221 27.0427 107.538 26.872C106.877 26.7013 106.301 26.4453 105.81 26.104C105.341 25.7413 104.967 25.304 104.69 24.792C104.413 24.2587 104.274 23.64 104.274 22.936C104.274 21.976 104.53 21.1653 105.042 20.504C105.575 19.8427 106.237 19.288 107.026 18.84C107.815 18.392 108.658 18.04 109.554 17.784C110.45 17.5067 111.282 17.272 112.05 17.08ZM106.866 22.904C106.866 23.992 107.154 24.888 107.73 25.592C108.327 26.296 109.159 26.648 110.226 26.648C110.823 26.648 111.431 26.52 112.05 26.264C112.669 26.008 113.234 25.6347 113.746 25.144C114.258 24.632 114.685 24.0027 115.026 23.256C115.367 22.5093 115.559 21.6453 115.602 20.664V16.696L112.114 17.528C111.666 17.6347 111.133 17.7947 110.514 18.008C109.917 18.2213 109.341 18.5307 108.786 18.936C108.253 19.32 107.794 19.832 107.41 20.472C107.047 21.112 106.866 21.9227 106.866 22.904ZM120.963 25.304L121.475 19.256C121.603 20.7067 121.838 21.912 122.179 22.872C122.542 23.832 122.979 24.6 123.491 25.176C124.024 25.7307 124.622 26.1253 125.283 26.36C125.966 26.5947 126.691 26.712 127.459 26.712C129.059 26.712 130.232 26.328 130.979 25.56C131.747 24.792 132.131 23.8533 132.131 22.744C132.131 22.104 132.014 21.5707 131.779 21.144C131.544 20.696 131.256 20.3333 130.915 20.056C130.595 19.7573 130.243 19.5333 129.859 19.384C129.475 19.2133 129.123 19.0747 128.803 18.968L125.379 17.816C125.038 17.7093 124.654 17.5493 124.227 17.336C123.8 17.1013 123.395 16.8027 123.011 16.44C122.627 16.0773 122.296 15.64 122.019 15.128C121.763 14.5947 121.635 13.976 121.635 13.272C121.635 11.864 122.158 10.7547 123.203 9.944C124.248 9.13333 125.635 8.728 127.363 8.728C128.536 8.728 129.603 8.90933 130.563 9.272C131.544 9.63467 132.387 10.1253 133.091 10.744L132.867 15.064C132.334 12.9733 131.63 11.4693 130.755 10.552C129.902 9.63467 128.75 9.176 127.299 9.176C126.147 9.176 125.187 9.45333 124.419 10.008C123.651 10.5413 123.267 11.3733 123.267 12.504C123.267 13.016 123.374 13.4427 123.587 13.784C123.8 14.1253 124.056 14.4133 124.355 14.648C124.675 14.8613 125.016 15.0427 125.379 15.192C125.742 15.32 126.083 15.4373 126.403 15.544L129.507 16.568C129.912 16.696 130.371 16.8773 130.883 17.112C131.416 17.3467 131.918 17.6667 132.387 18.072C132.856 18.456 133.251 18.9467 133.571 19.544C133.891 20.12 134.051 20.8347 134.051 21.688C134.051 22.4773 133.902 23.2027 133.603 23.864C133.304 24.5253 132.867 25.1013 132.291 25.592C131.715 26.0827 131 26.4667 130.147 26.744C129.315 27.0213 128.344 27.16 127.235 27.16C126.019 27.16 124.846 27 123.715 26.68C122.606 26.36 121.688 25.9013 120.963 25.304ZM138.405 8.92L140.613 4.472V8.92H145.861V9.272H140.613V23.032C140.613 23.736 140.655 24.3227 140.741 24.792C140.847 25.2613 140.986 25.6347 141.157 25.912C141.327 26.1893 141.541 26.3813 141.797 26.488C142.074 26.5947 142.383 26.648 142.725 26.648C143.343 26.648 143.866 26.4773 144.293 26.136C144.719 25.7733 145.114 25.272 145.477 24.632L145.893 24.92C145.466 25.6027 144.997 26.1467 144.485 26.552C143.994 26.936 143.269 27.128 142.309 27.128C140.815 27.128 139.759 26.7013 139.141 25.848C138.543 24.9733 138.245 23.7467 138.245 22.168V9.272H135.109V8.92H138.405ZM155.131 8.76C156.411 8.76 157.521 8.94133 158.459 9.304C159.419 9.66667 160.209 10.1787 160.827 10.84C161.446 11.5013 161.905 12.28 162.203 13.176C162.523 14.072 162.694 15.0533 162.715 16.12H149.243C149.201 16.44 149.169 16.7707 149.147 17.112C149.126 17.432 149.115 17.7627 149.115 18.104C149.115 19.32 149.275 20.4613 149.595 21.528C149.937 22.5733 150.395 23.48 150.971 24.248C151.569 25.016 152.273 25.624 153.083 26.072C153.894 26.4987 154.779 26.712 155.739 26.712C156.593 26.712 157.361 26.5627 158.043 26.264C158.747 25.944 159.387 25.496 159.963 24.92C160.539 24.344 161.051 23.6613 161.499 22.872C161.969 22.0613 162.374 21.176 162.715 20.216L162.427 24.856C161.489 25.6453 160.422 26.232 159.227 26.616C158.033 26.9787 156.87 27.16 155.739 27.16C154.395 27.16 153.158 26.9467 152.027 26.52C150.897 26.072 149.915 25.4533 149.083 24.664C148.273 23.8747 147.643 22.9147 147.195 21.784C146.747 20.6533 146.523 19.4053 146.523 18.04C146.523 16.696 146.715 15.4587 147.099 14.328C147.505 13.1973 148.081 12.216 148.827 11.384C149.574 10.552 150.47 9.912 151.515 9.464C152.582 8.99467 153.787 8.76 155.131 8.76ZM149.307 15.736H160.219C160.198 14.7973 160.07 13.9333 159.835 13.144C159.601 12.3547 159.27 11.6613 158.843 11.064C158.417 10.4667 157.883 10.008 157.243 9.688C156.625 9.34667 155.91 9.176 155.099 9.176C154.331 9.176 153.627 9.336 152.987 9.656C152.347 9.976 151.771 10.4347 151.259 11.032C150.769 11.608 150.353 12.3013 150.011 13.112C149.691 13.9013 149.457 14.776 149.307 15.736ZM164.709 27C165.05 26.8933 165.327 26.776 165.541 26.648C165.754 26.52 165.925 26.36 166.053 26.168C166.181 25.9547 166.266 25.688 166.309 25.368C166.351 25.048 166.373 24.664 166.373 24.216V12.408C166.373 11.96 166.351 11.576 166.309 11.256C166.287 10.9147 166.245 10.616 166.181 10.36C166.117 10.104 166.021 9.86933 165.893 9.656C165.786 9.44267 165.647 9.22933 165.477 9.016L168.709 8.728V13.016C168.965 12.4187 169.253 11.864 169.573 11.352C169.893 10.84 170.266 10.392 170.693 10.008C171.119 9.624 171.61 9.32533 172.165 9.112C172.741 8.89867 173.391 8.792 174.117 8.792C174.799 8.792 175.407 8.86667 175.941 9.016L175.909 12.088C175.717 11.8533 175.482 11.608 175.205 11.352C174.949 11.096 174.671 10.8613 174.373 10.648C174.074 10.4347 173.765 10.264 173.445 10.136C173.125 9.98667 172.794 9.912 172.453 9.912C172.026 9.912 171.631 10.0187 171.269 10.232C170.906 10.4453 170.565 10.7333 170.245 11.096C169.946 11.4373 169.669 11.8533 169.413 12.344C169.157 12.8133 168.933 13.3147 168.741 13.848V24.216C168.741 24.664 168.762 25.048 168.805 25.368C168.869 25.6667 168.965 25.9227 169.093 26.136C169.221 26.3493 169.391 26.52 169.605 26.648C169.818 26.776 170.085 26.8933 170.405 27H164.709ZM177.182 25.304L177.694 19.256C177.822 20.7067 178.056 21.912 178.398 22.872C178.76 23.832 179.198 24.6 179.71 25.176C180.243 25.7307 180.84 26.1253 181.502 26.36C182.184 26.5947 182.91 26.712 183.678 26.712C185.278 26.712 186.451 26.328 187.198 25.56C187.966 24.792 188.35 23.8533 188.35 22.744C188.35 22.104 188.232 21.5707 187.998 21.144C187.763 20.696 187.475 20.3333 187.134 20.056C186.814 19.7573 186.462 19.5333 186.078 19.384C185.694 19.2133 185.342 19.0747 185.022 18.968L181.598 17.816C181.256 17.7093 180.872 17.5493 180.446 17.336C180.019 17.1013 179.614 16.8027 179.23 16.44C178.846 16.0773 178.515 15.64 178.238 15.128C177.982 14.5947 177.854 13.976 177.854 13.272C177.854 11.864 178.376 10.7547 179.422 9.944C180.467 9.13333 181.854 8.728 183.582 8.728C184.755 8.728 185.822 8.90933 186.782 9.272C187.763 9.63467 188.606 10.1253 189.31 10.744L189.086 15.064C188.552 12.9733 187.848 11.4693 186.974 10.552C186.12 9.63467 184.968 9.176 183.518 9.176C182.366 9.176 181.406 9.45333 180.638 10.008C179.87 10.5413 179.486 11.3733 179.486 12.504C179.486 13.016 179.592 13.4427 179.806 13.784C180.019 14.1253 180.275 14.4133 180.574 14.648C180.894 14.8613 181.235 15.0427 181.598 15.192C181.96 15.32 182.302 15.4373 182.622 15.544L185.726 16.568C186.131 16.696 186.59 16.8773 187.102 17.112C187.635 17.3467 188.136 17.6667 188.606 18.072C189.075 18.456 189.47 18.9467 189.79 19.544C190.11 20.12 190.27 20.8347 190.27 21.688C190.27 22.4773 190.12 23.2027 189.822 23.864C189.523 24.5253 189.086 25.1013 188.51 25.592C187.934 26.0827 187.219 26.4667 186.366 26.744C185.534 27.0213 184.563 27.16 183.454 27.16C182.238 27.16 181.064 27 179.934 26.68C178.824 26.36 177.907 25.9013 177.182 25.304Z" fill="black"/>
<path d="M9.14 35.03V42H8.23V38.84H4.68V42H3.77V35.03H4.68V38.09H8.23V35.03H9.14ZM12.5338 35.03V39.44C12.5338 40.06 12.6838 40.52 12.9838 40.82C13.2905 41.12 13.7138 41.27 14.2538 41.27C14.7872 41.27 15.2038 41.12 15.5038 40.82C15.8105 40.52 15.9638 40.06 15.9638 39.44V35.03H16.8738V39.43C16.8738 40.01 16.7572 40.5 16.5238 40.9C16.2905 41.2933 15.9738 41.5867 15.5738 41.78C15.1805 41.9733 14.7372 42.07 14.2438 42.07C13.7505 42.07 13.3038 41.9733 12.9038 41.78C12.5105 41.5867 12.1972 41.2933 11.9638 40.9C11.7372 40.5 11.6238 40.01 11.6238 39.43V35.03H12.5338ZM22.8319 38.41C23.0852 38.45 23.3152 38.5533 23.5219 38.72C23.7352 38.8867 23.9019 39.0933 24.0219 39.34C24.1485 39.5867 24.2119 39.85 24.2119 40.13C24.2119 40.4833 24.1219 40.8033 23.9419 41.09C23.7619 41.37 23.4985 41.5933 23.1519 41.76C22.8119 41.92 22.4085 42 21.9419 42H19.3419V35.03H21.8419C22.3152 35.03 22.7185 35.11 23.0519 35.27C23.3852 35.4233 23.6352 35.6333 23.8019 35.9C23.9685 36.1667 24.0519 36.4667 24.0519 36.8C24.0519 37.2133 23.9385 37.5567 23.7119 37.83C23.4919 38.0967 23.1985 38.29 22.8319 38.41ZM20.2519 38.04H21.7819C22.2085 38.04 22.5385 37.94 22.7719 37.74C23.0052 37.54 23.1219 37.2633 23.1219 36.91C23.1219 36.5567 23.0052 36.28 22.7719 36.08C22.5385 35.88 22.2019 35.78 21.7619 35.78H20.2519V38.04ZM21.8619 41.25C22.3152 41.25 22.6685 41.1433 22.9219 40.93C23.1752 40.7167 23.3019 40.42 23.3019 40.04C23.3019 39.6533 23.1685 39.35 22.9019 39.13C22.6352 38.9033 22.2785 38.79 21.8319 38.79H20.2519V41.25H21.8619ZM34.7007 37.07C34.7007 37.65 34.5007 38.1333 34.1007 38.52C33.7074 38.9 33.104 39.09 32.2907 39.09H30.9507V42H30.0407V35.03H32.2907C33.0774 35.03 33.674 35.22 34.0807 35.6C34.494 35.98 34.7007 36.47 34.7007 37.07ZM32.2907 38.34C32.7974 38.34 33.1707 38.23 33.4107 38.01C33.6507 37.79 33.7707 37.4767 33.7707 37.07C33.7707 36.21 33.2774 35.78 32.2907 35.78H30.9507V38.34H32.2907ZM40.9017 40.45H37.8617L37.3017 42H36.3417L38.8617 35.07H39.9117L42.4217 42H41.4617L40.9017 40.45ZM40.6417 39.71L39.3817 36.19L38.1217 39.71H40.6417ZM48.14 42L46.48 39.15H45.38V42H44.47V35.03H46.72C47.2467 35.03 47.69 35.12 48.05 35.3C48.4167 35.48 48.69 35.7233 48.87 36.03C49.05 36.3367 49.14 36.6867 49.14 37.08C49.14 37.56 49 37.9833 48.72 38.35C48.4467 38.7167 48.0333 38.96 47.48 39.08L49.23 42H48.14ZM45.38 38.42H46.72C47.2133 38.42 47.5833 38.3 47.83 38.06C48.0767 37.8133 48.2 37.4867 48.2 37.08C48.2 36.6667 48.0767 36.3467 47.83 36.12C47.59 35.8933 47.22 35.78 46.72 35.78H45.38V38.42ZM55.624 40.45H52.584L52.024 42H51.064L53.584 35.07H54.634L57.144 42H56.184L55.624 40.45ZM55.364 39.71L54.104 36.19L52.844 39.71H55.364ZM66.3183 35.03V40.18C66.3183 40.7533 66.1416 41.2133 65.7883 41.56C65.4349 41.9 64.9683 42.07 64.3883 42.07C63.8016 42.07 63.3316 41.8967 62.9783 41.55C62.6249 41.1967 62.4483 40.7167 62.4483 40.11H63.3583C63.3649 40.45 63.4516 40.7267 63.6183 40.94C63.7916 41.1533 64.0483 41.26 64.3883 41.26C64.7283 41.26 64.9816 41.16 65.1483 40.96C65.3149 40.7533 65.3983 40.4933 65.3983 40.18V35.03H66.3183ZM72.221 42.07C71.5743 42.07 70.9843 41.92 70.451 41.62C69.9177 41.3133 69.4943 40.89 69.181 40.35C68.8743 39.8033 68.721 39.19 68.721 38.51C68.721 37.83 68.8743 37.22 69.181 36.68C69.4943 36.1333 69.9177 35.71 70.451 35.41C70.9843 35.1033 71.5743 34.95 72.221 34.95C72.8743 34.95 73.4677 35.1033 74.001 35.41C74.5343 35.71 74.9543 36.13 75.261 36.67C75.5677 37.21 75.721 37.8233 75.721 38.51C75.721 39.1967 75.5677 39.81 75.261 40.35C74.9543 40.89 74.5343 41.3133 74.001 41.62C73.4677 41.92 72.8743 42.07 72.221 42.07ZM72.221 41.28C72.7077 41.28 73.1443 41.1667 73.531 40.94C73.9243 40.7133 74.231 40.39 74.451 39.97C74.6777 39.55 74.791 39.0633 74.791 38.51C74.791 37.95 74.6777 37.4633 74.451 37.05C74.231 36.63 73.9277 36.3067 73.541 36.08C73.1543 35.8533 72.7143 35.74 72.221 35.74C71.7277 35.74 71.2877 35.8533 70.901 36.08C70.5143 36.3067 70.2077 36.63 69.981 37.05C69.761 37.4633 69.651 37.95 69.651 38.51C69.651 39.0633 69.761 39.55 69.981 39.97C70.2077 40.39 70.5143 40.7133 70.901 40.94C71.2943 41.1667 71.7343 41.28 72.221 41.28ZM83.1523 37.05C82.959 36.6433 82.679 36.33 82.3123 36.11C81.9457 35.8833 81.519 35.77 81.0323 35.77C80.5457 35.77 80.1057 35.8833 79.7123 36.11C79.3257 36.33 79.019 36.65 78.7923 37.07C78.5723 37.4833 78.4623 37.9633 78.4623 38.51C78.4623 39.0567 78.5723 39.5367 78.7923 39.95C79.019 40.3633 79.3257 40.6833 79.7123 40.91C80.1057 41.13 80.5457 41.24 81.0323 41.24C81.7123 41.24 82.2723 41.0367 82.7123 40.63C83.1523 40.2233 83.409 39.6733 83.4823 38.98H80.7023V38.24H84.4523V38.94C84.399 39.5133 84.219 40.04 83.9123 40.52C83.6057 40.9933 83.2023 41.37 82.7023 41.65C82.2023 41.9233 81.6457 42.06 81.0323 42.06C80.3857 42.06 79.7957 41.91 79.2623 41.61C78.729 41.3033 78.3057 40.88 77.9923 40.34C77.6857 39.8 77.5323 39.19 77.5323 38.51C77.5323 37.83 77.6857 37.22 77.9923 36.68C78.3057 36.1333 78.729 35.71 79.2623 35.41C79.7957 35.1033 80.3857 34.95 81.0323 34.95C81.7723 34.95 82.4257 35.1333 82.9923 35.5C83.5657 35.8667 83.9823 36.3833 84.2423 37.05H83.1523ZM90.7255 40.45H87.6855L87.1255 42H86.1655L88.6855 35.07H89.7355L92.2455 42H91.2855L90.7255 40.45ZM90.4655 39.71L89.2055 36.19L87.9455 39.71H90.4655ZM96.4638 35.03C97.2238 35.03 97.8805 35.1733 98.4338 35.46C98.9938 35.74 99.4205 36.1433 99.7138 36.67C100.014 37.1967 100.164 37.8167 100.164 38.53C100.164 39.2433 100.014 39.8633 99.7138 40.39C99.4205 40.91 98.9938 41.31 98.4338 41.59C97.8805 41.8633 97.2238 42 96.4638 42H94.2938V35.03H96.4638ZM96.4638 41.25C97.3638 41.25 98.0505 41.0133 98.5238 40.54C98.9972 40.06 99.2338 39.39 99.2338 38.53C99.2338 37.6633 98.9938 36.9867 98.5138 36.5C98.0405 36.0133 97.3572 35.77 96.4638 35.77H95.2038V41.25H96.4638ZM105.474 42.07C104.827 42.07 104.237 41.92 103.704 41.62C103.171 41.3133 102.747 40.89 102.434 40.35C102.127 39.8033 101.974 39.19 101.974 38.51C101.974 37.83 102.127 37.22 102.434 36.68C102.747 36.1333 103.171 35.71 103.704 35.41C104.237 35.1033 104.827 34.95 105.474 34.95C106.127 34.95 106.721 35.1033 107.254 35.41C107.787 35.71 108.207 36.13 108.514 36.67C108.821 37.21 108.974 37.8233 108.974 38.51C108.974 39.1967 108.821 39.81 108.514 40.35C108.207 40.89 107.787 41.3133 107.254 41.62C106.721 41.92 106.127 42.07 105.474 42.07ZM105.474 41.28C105.961 41.28 106.397 41.1667 106.784 40.94C107.177 40.7133 107.484 40.39 107.704 39.97C107.931 39.55 108.044 39.0633 108.044 38.51C108.044 37.95 107.931 37.4633 107.704 37.05C107.484 36.63 107.181 36.3067 106.794 36.08C106.407 35.8533 105.967 35.74 105.474 35.74C104.981 35.74 104.541 35.8533 104.154 36.08C103.767 36.3067 103.461 36.63 103.234 37.05C103.014 37.4633 102.904 37.95 102.904 38.51C102.904 39.0633 103.014 39.55 103.234 39.97C103.461 40.39 103.767 40.7133 104.154 40.94C104.547 41.1667 104.987 41.28 105.474 41.28ZM114.795 42L113.135 39.15H112.035V42H111.125V35.03H113.375C113.902 35.03 114.345 35.12 114.705 35.3C115.072 35.48 115.345 35.7233 115.525 36.03C115.705 36.3367 115.795 36.6867 115.795 37.08C115.795 37.56 115.655 37.9833 115.375 38.35C115.102 38.7167 114.689 38.96 114.135 39.08L115.885 42H114.795ZM112.035 38.42H113.375C113.869 38.42 114.239 38.3 114.485 38.06C114.732 37.8133 114.855 37.4867 114.855 37.08C114.855 36.6667 114.732 36.3467 114.485 36.12C114.245 35.8933 113.875 35.78 113.375 35.78H112.035V38.42ZM119.069 35.77V38.1H121.609V38.85H119.069V41.25H121.909V42H118.159V35.02H121.909V35.77H119.069ZM126.446 42.07C125.986 42.07 125.573 41.99 125.206 41.83C124.846 41.6633 124.563 41.4367 124.356 41.15C124.15 40.8567 124.043 40.52 124.036 40.14H125.006C125.04 40.4667 125.173 40.7433 125.406 40.97C125.646 41.19 125.993 41.3 126.446 41.3C126.88 41.3 127.22 41.1933 127.466 40.98C127.72 40.76 127.846 40.48 127.846 40.14C127.846 39.8733 127.773 39.6567 127.626 39.49C127.48 39.3233 127.296 39.1967 127.076 39.11C126.856 39.0233 126.56 38.93 126.186 38.83C125.726 38.71 125.356 38.59 125.076 38.47C124.803 38.35 124.566 38.1633 124.366 37.91C124.173 37.65 124.076 37.3033 124.076 36.87C124.076 36.49 124.173 36.1533 124.366 35.86C124.56 35.5667 124.83 35.34 125.176 35.18C125.53 35.02 125.933 34.94 126.386 34.94C127.04 34.94 127.573 35.1033 127.986 35.43C128.406 35.7567 128.643 36.19 128.696 36.73H127.696C127.663 36.4633 127.523 36.23 127.276 36.03C127.03 35.8233 126.703 35.72 126.296 35.72C125.916 35.72 125.606 35.82 125.366 36.02C125.126 36.2133 125.006 36.4867 125.006 36.84C125.006 37.0933 125.076 37.3 125.216 37.46C125.363 37.62 125.54 37.7433 125.746 37.83C125.96 37.91 126.256 38.0033 126.636 38.11C127.096 38.2367 127.466 38.3633 127.746 38.49C128.026 38.61 128.266 38.8 128.466 39.06C128.666 39.3133 128.766 39.66 128.766 40.1C128.766 40.44 128.676 40.76 128.496 41.06C128.316 41.36 128.05 41.6033 127.696 41.79C127.343 41.9767 126.926 42.07 126.446 42.07ZM135.582 35.03V42H134.672V35.03H135.582ZM143.562 42H142.653L138.993 36.45V42H138.083V35.02H138.993L142.653 40.56V35.02H143.562V42ZM145.724 38.51C145.724 37.83 145.877 37.22 146.184 36.68C146.49 36.1333 146.907 35.7067 147.434 35.4C147.967 35.0933 148.557 34.94 149.204 34.94C149.964 34.94 150.627 35.1233 151.194 35.49C151.76 35.8567 152.174 36.3767 152.434 37.05H151.344C151.15 36.63 150.87 36.3067 150.504 36.08C150.144 35.8533 149.71 35.74 149.204 35.74C148.717 35.74 148.28 35.8533 147.894 36.08C147.507 36.3067 147.204 36.63 146.984 37.05C146.764 37.4633 146.654 37.95 146.654 38.51C146.654 39.0633 146.764 39.55 146.984 39.97C147.204 40.3833 147.507 40.7033 147.894 40.93C148.28 41.1567 148.717 41.27 149.204 41.27C149.71 41.27 150.144 41.16 150.504 40.94C150.87 40.7133 151.15 40.39 151.344 39.97H152.434C152.174 40.6367 151.76 41.1533 151.194 41.52C150.627 41.88 149.964 42.06 149.204 42.06C148.557 42.06 147.967 41.91 147.434 41.61C146.907 41.3033 146.49 40.88 146.184 40.34C145.877 39.8 145.724 39.19 145.724 38.51ZM158.408 42L156.748 39.15H155.648V42H154.738V35.03H156.988C157.515 35.03 157.958 35.12 158.318 35.3C158.685 35.48 158.958 35.7233 159.138 36.03C159.318 36.3367 159.408 36.6867 159.408 37.08C159.408 37.56 159.268 37.9833 158.988 38.35C158.715 38.7167 158.302 38.96 157.748 39.08L159.498 42H158.408ZM155.648 38.42H156.988C157.482 38.42 157.852 38.3 158.098 38.06C158.345 37.8133 158.468 37.4867 158.468 37.08C158.468 36.6667 158.345 36.3467 158.098 36.12C157.858 35.8933 157.488 35.78 156.988 35.78H155.648V38.42ZM162.682 35.03V42H161.772V35.03H162.682ZM170.943 35.03L168.313 42H167.263L164.633 35.03H165.603L167.793 41.04L169.983 35.03H170.943ZM173.801 35.77V38.1H176.341V38.85H173.801V41.25H176.641V42H172.891V35.02H176.641V35.77H173.801ZM179.878 35.03V42H178.968V35.03H179.878ZM184.589 42.07C184.129 42.07 183.716 41.99 183.349 41.83C182.989 41.6633 182.706 41.4367 182.499 41.15C182.292 40.8567 182.186 40.52 182.179 40.14H183.149C183.182 40.4667 183.316 40.7433 183.549 40.97C183.789 41.19 184.136 41.3 184.589 41.3C185.022 41.3 185.362 41.1933 185.609 40.98C185.862 40.76 185.989 40.48 185.989 40.14C185.989 39.8733 185.916 39.6567 185.769 39.49C185.622 39.3233 185.439 39.1967 185.219 39.11C184.999 39.0233 184.702 38.93 184.329 38.83C183.869 38.71 183.499 38.59 183.219 38.47C182.946 38.35 182.709 38.1633 182.509 37.91C182.316 37.65 182.219 37.3033 182.219 36.87C182.219 36.49 182.316 36.1533 182.509 35.86C182.702 35.5667 182.972 35.34 183.319 35.18C183.672 35.02 184.076 34.94 184.529 34.94C185.182 34.94 185.716 35.1033 186.129 35.43C186.549 35.7567 186.786 36.19 186.839 36.73H185.839C185.806 36.4633 185.666 36.23 185.419 36.03C185.172 35.8233 184.846 35.72 184.439 35.72C184.059 35.72 183.749 35.82 183.509 36.02C183.269 36.2133 183.149 36.4867 183.149 36.84C183.149 37.0933 183.219 37.3 183.359 37.46C183.506 37.62 183.682 37.7433 183.889 37.83C184.102 37.91 184.399 38.0033 184.779 38.11C185.239 38.2367 185.609 38.3633 185.889 38.49C186.169 38.61 186.409 38.8 186.609 39.06C186.809 39.3133 186.909 39.66 186.909 40.1C186.909 40.44 186.819 40.76 186.639 41.06C186.459 41.36 186.192 41.6033 185.839 41.79C185.486 41.9767 185.069 42.07 184.589 42.07Z" fill="black"/>
</svg>
