<svg width="178" height="190" viewBox="0 0 178 190" fill="none" xmlns="http://www.w3.org/2000/svg">
<path d="M76.8501 167.353C82.8284 167.422 87.6959 165.661 87.7219 163.419C87.7479 161.177 82.9227 159.304 76.9443 159.234C70.966 159.165 66.0985 160.926 66.0725 163.168C66.0465 165.41 70.8718 167.283 76.8501 167.353Z" fill="#2F2E41"/>
<path d="M102.836 167.113C108.814 167.182 113.682 165.421 113.708 163.179C113.734 160.937 108.908 159.064 102.93 158.994C96.9516 158.925 92.0841 160.686 92.0581 162.928C92.0321 165.17 96.8574 167.044 102.836 167.113Z" fill="#2F2E41"/>
<path d="M138.116 99.2847C148.414 93.5065 155.291 86.2017 153.477 82.969C151.663 79.7363 141.845 81.7998 131.547 87.578C121.249 93.3561 114.372 100.661 116.186 103.894C118 107.126 127.818 105.063 138.116 99.2847Z" fill="#2F2E41"/>
<path d="M128.346 113.632C132.399 90.367 116.824 68.2208 93.5585 64.1677C70.293 60.1146 48.1469 75.6893 44.0937 98.9548C40.0406 122.22 55.6153 144.366 78.8809 148.42C102.146 152.473 124.292 136.898 128.346 113.632Z" fill="#2F2E41"/>
<path d="M79.3354 139.775L66.3458 139.624L66.0757 162.897L79.0653 163.048L79.3354 139.775Z" fill="#2F2E41"/>
<path d="M105.315 140.076L92.3251 139.925L92.055 163.198L105.045 163.349L105.315 140.076Z" fill="#2F2E41"/>
<path d="M87.2583 110.095C95.329 110.188 101.948 103.722 102.041 95.6509C102.135 87.5802 95.6682 80.9616 87.5975 80.8679C79.5267 80.7743 72.9082 87.2409 72.8145 95.3117C72.7209 103.382 79.1875 110.001 87.2583 110.095Z" fill="white"/>
<path d="M87.3712 100.353C90.0615 100.384 92.2676 98.2283 92.2989 95.538C92.3301 92.8478 90.1745 90.6416 87.4843 90.6103C84.794 90.5791 82.5878 92.7347 82.5566 95.4249C82.5254 98.1152 84.681 100.321 87.3712 100.353Z" fill="#3F3D56"/>
<path d="M45.2051 66.049C41.9321 50.5472 53.1496 35.0518 70.2601 31.4391C87.3706 27.8264 103.895 37.4645 107.168 52.9663C110.441 68.4681 99.0641 74.0394 81.9536 77.652C64.8431 81.2647 48.4781 81.5509 45.2051 66.049Z" fill="#A0A0A0"/>
<path d="M57.5009 95.2805C59.1282 91.9499 51.8467 85.0478 41.2373 79.8643C30.6279 74.6808 20.7082 73.1787 19.0809 76.5093C17.4537 79.8399 24.7351 86.7419 35.3445 91.9255C45.9539 97.109 55.8736 98.6111 57.5009 95.2805Z" fill="#2F2E41"/>
<path d="M65.0384 121.475C64.9898 125.66 75.6691 134.049 87.6257 134.187C99.5824 134.326 110.93 122.675 110.978 118.49C111.027 114.305 99.7582 119.172 87.8016 119.033C75.845 118.894 65.087 117.29 65.0384 121.475Z" fill="white"/>
</svg>
