<svg width="132" height="154" viewBox="0 0 132 154" fill="none" xmlns="http://www.w3.org/2000/svg">
<path d="M27.8307 140.168C33.4048 142.446 38.616 142.599 39.4703 140.508C40.3246 138.418 36.4985 134.877 30.9244 132.599C25.3503 130.321 20.1391 130.168 19.2848 132.259C18.4305 134.349 22.2567 137.89 27.8307 140.168Z" fill="#2F2E41"/>
<path d="M52.2595 149.563C57.8336 151.841 63.0448 151.994 63.8991 149.903C64.7534 147.813 60.9273 144.272 55.3532 141.994C49.7791 139.716 44.5679 139.563 43.7136 141.654C42.8593 143.744 46.6855 147.285 52.2595 149.563Z" fill="#2F2E41"/>
<path d="M110.415 99.0905C122.2 97.4903 131.346 93.194 130.844 89.4945C130.341 85.7949 120.381 84.0931 108.596 85.6933C96.8115 87.2936 87.6654 91.5899 88.1678 95.2894C88.6701 98.9889 98.6307 100.691 110.415 99.0905Z" fill="#2F2E41"/>
<path d="M95.9521 108.913C108.361 88.6211 101.971 62.1117 81.6792 49.7025C61.3873 37.2934 34.8779 43.6836 22.4687 63.9754C10.0596 84.2673 16.4498 110.777 36.7417 123.186C57.0336 135.595 83.543 129.205 95.9521 108.913Z" fill="#2F2E41"/>
<path d="M40.3677 115.257L28.2564 110.307L19.3879 132.006L31.4992 136.956L40.3677 115.257Z" fill="#2F2E41"/>
<path d="M64.5903 125.156L52.479 120.207L43.6105 141.906L55.7218 146.856L64.5903 125.156Z" fill="#2F2E41"/>
<path d="M58.7761 90.3891C66.3011 93.4646 74.8944 89.8575 77.9698 82.3325C81.0453 74.8075 77.4382 66.2141 69.9132 63.1387C62.3882 60.0633 53.7949 63.6703 50.7194 71.1953C47.644 78.7203 51.2511 87.3137 58.7761 90.3891Z" fill="white"/>
<path d="M62.4884 81.3057C64.9967 82.3308 67.8612 81.1285 68.8863 78.6201C69.9115 76.1118 68.7091 73.2473 66.2008 72.2222C63.6924 71.197 60.828 72.3994 59.8028 74.9077C58.7777 77.4161 59.98 80.2805 62.4884 81.3057Z" fill="#3F3D56"/>
<path d="M35.691 33.5647C38.3639 17.8328 54.6073 7.47124 71.9718 10.4214C89.3362 13.3717 101.246 28.5165 98.5732 44.2484C95.9004 59.9802 83.1817 60.9872 65.8172 58.0369C48.4528 55.0867 33.0181 49.2966 35.691 33.5647Z" fill="#CCCCCC"/>
<path d="M36.3869 65.497C39.144 62.9797 34.8787 53.8192 26.8601 45.0364C18.8414 36.2536 10.1058 31.1745 7.34865 33.6918C4.59146 36.2091 8.85672 45.3696 16.8754 54.1524C24.8941 62.9352 33.6297 68.0144 36.3869 65.497Z" fill="#2F2E41"/>
<path d="M33.7503 92.8232C32.1556 96.725 39.0533 108.536 50.2014 113.092C61.3496 117.648 76.2918 110.935 77.8864 107.033C79.4811 103.132 67.1244 103.518 55.9763 98.9622C44.8281 94.406 35.345 88.9213 33.7503 92.8232Z" fill="white"/>
</svg>
