<svg width="705" height="537" viewBox="0 0 705 537" fill="none" xmlns="http://www.w3.org/2000/svg">
<path d="M1.86319 536.208H654.416C654.747 536.208 655.064 536.077 655.298 535.843C655.532 535.609 655.663 535.292 655.663 534.961C655.663 534.63 655.532 534.313 655.298 534.079C655.064 533.845 654.747 533.714 654.416 533.714H1.86319C1.53246 533.714 1.2153 533.845 0.981445 534.079C0.747587 534.313 0.616211 534.63 0.616211 534.961C0.616211 535.292 0.747587 535.609 0.981445 535.843C1.2153 536.077 1.53246 536.208 1.86319 536.208V536.208Z" fill="#CCCCCC"/>
<path d="M127.237 234.113C89.0736 196.543 72.955 157.349 81.8495 123.751C93.2641 80.6345 143.973 50.8232 220.975 41.9609L221.259 44.4342C145.33 53.1725 95.394 82.3147 84.2559 124.388C75.5996 157.085 91.4842 195.424 128.984 232.34L127.237 234.113Z" fill="#F0F0F0"/>
<path d="M495.453 367.473C447.822 367.473 396.063 360.395 344.651 346.784C281.074 329.953 222.781 304.548 176.073 273.314L177.456 271.246C223.939 302.328 281.974 327.617 345.288 344.378C402.504 359.526 460.15 366.544 511.971 364.692L512.061 367.179C506.588 367.376 501.052 367.474 495.453 367.473Z" fill="#F0F0F0"/>
<path d="M542.624 440.424C532.971 440.424 523.153 440.209 513.169 439.778L513.276 437.291C587.778 440.516 653.513 431.601 703.386 411.502L704.317 413.812C660.811 431.342 605.359 440.424 542.624 440.424Z" fill="#F0F0F0"/>
<path d="M436.961 371.206C389.33 371.206 337.571 364.128 286.159 350.518C222.582 333.686 164.288 308.281 117.581 277.048L118.964 274.979C165.447 306.061 223.482 331.35 286.796 348.111C344.012 363.259 401.657 370.278 453.479 368.426L453.568 370.912C448.096 371.109 442.56 371.207 436.961 371.206Z" fill="#F0F0F0"/>
<path d="M429.829 47.9264C414.36 42.89 398.449 38.2006 382.537 33.9882C290.974 9.74809 200.966 1.14159 122.24 9.10393L121.99 6.62707C201.009 -1.36141 291.325 7.26568 383.174 31.5818C399.131 35.8064 415.087 40.5091 430.6 45.5601L429.829 47.9264Z" fill="#F0F0F0"/>
<path d="M79.5863 222.452C79.4029 223.929 79.5893 225.428 80.1287 226.816C80.6681 228.203 81.5436 229.435 82.6766 230.4C83.2591 230.893 82.4188 231.728 81.8401 231.238C80.5933 230.166 79.6281 228.805 79.0287 227.273C78.4294 225.742 78.2142 224.087 78.4019 222.453C78.4067 222.298 78.4705 222.15 78.5803 222.04C78.6902 221.93 78.8379 221.866 78.9934 221.86C79.1502 221.861 79.3004 221.923 79.4114 222.034C79.5224 222.145 79.5852 222.295 79.5862 222.452H79.5863Z" fill="white"/>
<path d="M544.317 242.424C545.198 236.997 541.512 231.883 536.085 231.002C530.657 230.121 525.543 233.807 524.662 239.235C523.782 244.662 527.467 249.776 532.895 250.657C538.323 251.538 543.437 247.852 544.317 242.424Z" fill="#E6E6E6"/>
<path d="M604.724 351.82L603.927 349.463C646.526 335.06 673.17 311.858 680.978 282.364C690.904 244.87 669.34 201.36 620.258 159.85C570.926 118.129 499.788 83.5112 419.946 62.3745L420.583 59.9681C500.774 81.1978 572.258 115.995 621.865 157.95C671.722 200.115 693.571 244.526 683.385 283.001C675.353 313.341 648.152 337.138 604.724 351.82Z" fill="#F0F0F0"/>
<path d="M488.322 44.1929C472.853 39.1565 456.941 34.4671 441.03 30.2547C349.466 6.01454 259.458 -2.59196 180.733 5.37043L180.482 2.89354C259.501 -5.09494 349.817 3.53217 441.667 27.8483C457.623 32.0728 473.579 36.7756 489.092 41.8266L488.322 44.1929Z" fill="#F0F0F0"/>
<path d="M546.232 355.554L545.434 353.196C588.033 338.793 614.678 315.592 622.486 286.097C632.412 248.603 610.848 205.094 561.766 163.584C512.434 121.863 441.296 87.2448 361.454 66.108L362.091 63.7017C442.282 84.9314 513.766 119.729 563.373 161.684C613.23 203.849 635.078 248.26 624.893 286.734C616.86 317.074 589.66 340.871 546.232 355.554Z" fill="#F0F0F0"/>
<path d="M484.132 444.158C474.479 444.158 464.66 443.942 454.677 443.511L454.784 441.025C529.286 444.25 595.02 435.334 644.893 415.236L645.824 417.545C602.319 435.075 546.867 444.158 484.132 444.158Z" fill="#F0F0F0"/>
<path d="M163.224 144.197C168.723 144.197 173.18 139.739 173.18 134.241C173.18 128.742 168.723 124.285 163.224 124.285C157.726 124.285 153.268 128.742 153.268 134.241C153.268 139.739 157.726 144.197 163.224 144.197Z" fill="#FD6584"/>
<path d="M162.819 32.1559C168.318 32.1559 172.776 27.6984 172.776 22.1998C172.776 16.7012 168.318 12.2437 162.819 12.2437C157.321 12.2437 152.863 16.7012 152.863 22.1998C152.863 27.6984 157.321 32.1559 162.819 32.1559Z" fill="#E6E6E6"/>
<path d="M459.891 139.358H457.049V61.5078C457.049 49.5578 452.302 38.0972 443.852 29.6473C435.402 21.1974 423.942 16.4502 411.992 16.4502H247.056C241.139 16.4502 235.279 17.6156 229.813 19.8799C224.346 22.1443 219.379 25.4632 215.195 29.6471C211.011 33.8311 207.692 38.7982 205.428 44.2648C203.163 49.7314 201.998 55.5905 201.998 61.5076V61.5076V488.599C201.998 500.549 206.745 512.01 215.195 520.46C223.645 528.91 235.105 533.657 247.055 533.657H411.991C423.941 533.657 435.402 528.91 443.852 520.46C452.302 512.01 457.049 500.549 457.049 488.599V194.773H459.891V139.358Z" fill="#3F3D56"/>
<path d="M447.455 61.8202V488.286C447.456 492.704 446.586 497.079 444.896 501.161C443.206 505.242 440.729 508.951 437.605 512.076C434.482 515.2 430.773 517.679 426.692 519.37C422.611 521.061 418.236 521.932 413.818 521.932H248.077C239.154 521.933 230.596 518.388 224.286 512.079C217.976 505.77 214.431 497.213 214.431 488.29V61.8202C214.431 57.402 215.301 53.027 216.991 48.945C218.682 44.863 221.16 41.154 224.284 38.0297C227.408 34.9054 231.116 32.4269 235.198 30.7359C239.28 29.0449 243.655 28.1744 248.073 28.1742H268.19C267.2 30.6013 266.822 33.2348 267.089 35.8427C267.356 38.4505 268.26 40.9526 269.722 43.1285C271.184 45.3044 273.159 47.0873 275.472 48.3202C277.786 49.5531 280.367 50.1981 282.989 50.1983H377.482C380.103 50.1963 382.683 49.5503 384.996 48.317C387.308 47.0836 389.282 45.3008 390.744 43.1254C392.206 40.95 393.11 38.4487 393.378 35.8416C393.646 33.2344 393.269 30.6014 392.28 28.1742H413.81C418.228 28.174 422.603 29.044 426.685 30.7346C430.767 32.4252 434.476 34.9032 437.6 38.0272C440.724 41.1512 443.203 44.86 444.894 48.9418C446.585 53.0236 447.455 57.3985 447.455 61.8167V61.8167L447.455 61.8202Z" fill="#F2F2F2"/>
<path d="M278.404 68.8837H226.99V71.185H278.404V68.8837Z" fill="white"/>
<path d="M356.65 68.8837H305.236V71.185H356.65V68.8837Z" fill="white"/>
<path d="M411.546 344.442H243.947C243.383 344.442 242.824 344.331 242.302 344.115C241.78 343.899 241.306 343.582 240.907 343.183C240.507 342.783 240.191 342.309 239.975 341.788C239.758 341.266 239.647 340.707 239.647 340.142C239.647 339.577 239.758 339.018 239.975 338.497C240.191 337.975 240.507 337.501 240.907 337.101C241.306 336.702 241.78 336.385 242.302 336.169C242.824 335.953 243.383 335.842 243.947 335.842H411.546C412.111 335.842 412.67 335.953 413.191 336.169C413.713 336.385 414.187 336.702 414.587 337.101C414.986 337.501 415.303 337.975 415.519 338.497C415.735 339.018 415.846 339.577 415.846 340.142C415.846 340.707 415.735 341.266 415.519 341.788C415.303 342.309 414.986 342.783 414.587 343.183C414.187 343.582 413.713 343.899 413.191 344.115C412.67 344.331 412.111 344.442 411.546 344.442V344.442Z" fill="#CCCCCC"/>
<path d="M411.546 374.36H243.947C242.807 374.36 241.713 373.907 240.907 373.101C240.1 372.294 239.647 371.2 239.647 370.06C239.647 368.919 240.1 367.826 240.907 367.019C241.713 366.213 242.807 365.76 243.947 365.76H411.546C412.686 365.76 413.78 366.213 414.587 367.019C415.393 367.826 415.846 368.919 415.846 370.06C415.846 371.2 415.393 372.294 414.587 373.101C413.78 373.907 412.686 374.36 411.546 374.36V374.36Z" fill="#CCCCCC"/>
<path d="M411.546 404.278H243.947C242.807 404.278 241.713 403.825 240.907 403.018C240.1 402.212 239.647 401.118 239.647 399.978C239.647 398.837 240.1 397.743 240.907 396.937C241.713 396.131 242.807 395.677 243.947 395.677H411.546C412.686 395.677 413.78 396.131 414.587 396.937C415.393 397.743 415.846 398.837 415.846 399.978C415.846 401.118 415.393 402.212 414.587 403.018C413.78 403.825 412.686 404.278 411.546 404.278V404.278Z" fill="#CCCCCC"/>
<path d="M434.897 68.8837H383.482V71.185H434.897V68.8837Z" fill="white"/>
<path d="M278.404 481.979H226.99V484.28H278.404V481.979Z" fill="white"/>
<path d="M356.65 481.979H305.236V484.28H356.65V481.979Z" fill="white"/>
<path d="M434.897 481.979H383.482V484.28H434.897V481.979Z" fill="white"/>
<path d="M330.943 285.534C373.985 285.534 408.878 250.642 408.878 207.6C408.878 164.558 373.985 129.666 330.943 129.666C287.901 129.666 253.009 164.558 253.009 207.6C253.009 250.642 287.901 285.534 330.943 285.534Z" fill="#D1D3D4"/>
<path d="M330.943 282.153C370.21 282.153 402.043 250.321 402.043 211.054C402.043 171.786 370.21 139.954 330.943 139.954C291.676 139.954 259.844 171.786 259.844 211.054C259.844 250.321 291.676 282.153 330.943 282.153Z" fill="#6C63FF"/>
<path d="M324.736 238.92C324.583 238.92 324.427 238.917 324.272 238.909C322.908 238.843 321.575 238.483 320.364 237.853C319.152 237.224 318.092 236.34 317.254 235.262L306.048 220.856C304.507 218.871 303.816 216.355 304.128 213.862C304.439 211.369 305.727 209.101 307.709 207.556L308.11 207.243C310.096 205.702 312.611 205.012 315.105 205.323C317.599 205.634 319.868 206.921 321.414 208.902C321.917 209.55 322.554 210.08 323.281 210.458C324.009 210.836 324.809 211.053 325.628 211.092C326.447 211.14 327.267 211.007 328.029 210.701C328.791 210.395 329.477 209.925 330.036 209.324L352.788 185.306C354.518 183.484 356.9 182.423 359.412 182.355C361.924 182.287 364.36 183.218 366.186 184.944L366.556 185.293C368.379 187.023 369.441 189.406 369.509 191.918C369.578 194.43 368.647 196.867 366.92 198.693L331.614 235.961C330.729 236.896 329.663 237.641 328.48 238.15C327.298 238.659 326.024 238.921 324.736 238.92V238.92Z" fill="white"/>
<path d="M206.422 98.5294H197.216V148.009H206.422V98.5294Z" fill="#3F3D56"/>
<path d="M206.422 153.762H197.216V182.529H206.422V153.762Z" fill="#3F3D56"/>
<path d="M206.422 188.283H197.216V217.05H206.422V188.283Z" fill="#3F3D56"/>
<path d="M285.819 39.8446C288.361 39.8446 290.421 37.7839 290.421 35.2419C290.421 32.6999 288.361 30.6392 285.819 30.6392C283.277 30.6392 281.216 32.6999 281.216 35.2419C281.216 37.7839 283.277 39.8446 285.819 39.8446Z" fill="white"/>
<path opacity="0.16" d="M330.943 272.304C312.955 272.302 295.637 265.48 282.479 253.215C269.321 240.95 261.302 224.152 260.038 206.209C259.923 207.864 259.844 209.529 259.844 211.214C259.844 230.071 267.334 248.155 280.668 261.489C294.002 274.823 312.086 282.314 330.943 282.314C349.8 282.314 367.884 274.823 381.218 261.489C394.552 248.155 402.043 230.071 402.043 211.214C402.043 209.529 401.963 207.864 401.848 206.209C400.584 224.152 392.565 240.95 379.407 253.215C366.249 265.48 348.931 272.302 330.943 272.304V272.304Z" fill="#231F20"/>
<path d="M431.182 268.426L487.565 270.727L494.469 232.754L446.14 217.796L431.182 268.426Z" fill="#FFB8B8"/>
<path d="M452.492 186.181L453.038 168.242L425.712 161.391L376.513 147.037C375.862 145.062 374.626 143.331 372.97 142.073C371.313 140.816 369.314 140.09 367.237 139.993C365.159 139.896 363.101 140.433 361.335 141.531C359.569 142.629 358.178 144.237 357.346 146.143C356.513 148.049 356.279 150.163 356.675 152.205C357.07 154.247 358.076 156.121 359.559 157.578C361.043 159.036 362.934 160.009 364.982 160.369C367.03 160.729 369.14 160.458 371.031 159.593L418.861 179.254L452.492 186.181Z" fill="#FFB8B8"/>
<path d="M434.884 186.055L450.256 164.13L450.64 164.181C450.881 164.213 474.988 167.438 490.792 172.144C492.568 172.615 494.221 173.467 495.633 174.642C497.046 175.817 498.186 177.286 498.973 178.946C500.102 181.267 500.53 183.866 500.202 186.426C499.875 188.986 498.807 191.395 497.13 193.356C495.423 195.476 493.142 197.06 490.559 197.919C487.976 198.777 485.2 198.873 482.563 198.196L434.884 186.055Z" fill="#4E4A85"/>
<path d="M444.621 518.459L428.984 518.458L421.545 458.145L444.623 458.146L444.621 518.459Z" fill="#FFB8B8"/>
<path d="M566.374 511.69L550.913 514.027L534.541 455.503L554.81 452.054L566.374 511.69Z" fill="#FFB8B8"/>
<path d="M489.866 259.22L435.784 250.015L433.861 253.979C423.51 275.34 417.399 298.505 415.864 322.192C414.559 342.188 413.79 363.307 413.765 385.446C413.726 419.747 415.476 451.574 418.243 480.535L447.925 480.349C447.068 449.601 448.235 418.83 451.42 388.235C453.692 366.419 456.85 346.04 460.503 327.235C467.278 354.841 476.842 381.687 489.045 407.359C499.418 429.295 520.754 454.651 531.126 476.587C541.755 475.311 552.384 474.036 563.012 472.76C554.636 450.609 539.693 418.262 531.317 396.111C519.341 364.439 513.931 342.964 501.955 311.292C502.638 305.338 502.771 299.334 502.353 293.356C501.795 283.392 499.723 271.434 493.664 263.463L489.866 259.22Z" fill="#2F2E41"/>
<path d="M498.222 242.711C500.922 247.759 494.508 258.218 489.866 259.22L436.385 241.932L463.314 163.9L476.862 166.362L498.531 170.013L506.217 176.999C508.153 178.76 509.535 181.046 510.197 183.578C510.858 186.11 510.771 188.779 509.944 191.262L498.222 242.711Z" fill="#4E4A85"/>
<path d="M461.405 212.554L446.275 202.899L426.397 222.862L388.875 257.771C386.845 257.319 384.726 257.493 382.797 258.272C380.869 259.051 379.222 260.396 378.075 262.131C376.928 263.866 376.334 265.908 376.373 267.988C376.412 270.067 377.081 272.086 378.292 273.776C379.503 275.467 381.199 276.751 383.155 277.457C385.111 278.163 387.236 278.258 389.248 277.731C391.259 277.203 393.064 276.077 394.422 274.502C395.779 272.927 396.627 270.976 396.852 268.909L438.233 237.894L461.405 212.554Z" fill="#FFB8B8"/>
<path d="M452.28 227.614L441.319 203.183L441.559 202.88C441.71 202.689 456.826 183.633 468.961 172.469C470.275 171.184 471.853 170.202 473.585 169.59C475.318 168.978 477.163 168.751 478.992 168.925C481.563 169.144 484.015 170.109 486.046 171.701C488.077 173.293 489.599 175.443 490.426 177.887C491.373 180.439 491.565 183.209 490.98 185.867C490.394 188.525 489.056 190.959 487.124 192.876L452.28 227.614Z" fill="#4E4A85"/>
<path d="M486.372 158.685C499.508 158.685 510.158 148.036 510.158 134.9C510.158 121.763 499.508 111.114 486.372 111.114C473.235 111.114 462.586 121.763 462.586 134.9C462.586 148.036 473.235 158.685 486.372 158.685Z" fill="#FFB8B8"/>
<path d="M505.581 169.366L505.49 169.343L470.925 160.698C469.727 160.398 468.616 159.822 467.681 159.016C466.746 158.209 466.014 157.195 465.541 156.054C465.069 154.913 464.871 153.678 464.962 152.447C465.054 151.215 465.433 150.023 466.068 148.964L467.21 147.065C468.325 145.21 468.958 143.105 469.05 140.943C469.143 138.781 468.693 136.629 467.74 134.686C466.103 131.512 463.287 129.106 459.896 127.985L459.781 127.93L459.055 127.478C458.342 127.142 457.706 126.659 457.19 126.063C456.674 125.466 456.288 124.768 456.057 124.014C455.817 123.232 455.744 122.409 455.843 121.597C455.942 120.785 456.209 120.003 456.629 119.302C459.68 114.198 464.247 110.172 469.693 107.784C476.574 104.822 484.325 104.589 491.371 107.133C491.84 106.702 492.41 106.394 493.027 106.237C493.645 106.08 494.292 106.079 494.911 106.233C512.811 110.569 514.285 122.584 510.748 141.871L514.934 158.754C515.23 159.946 515.263 161.188 515.03 162.394C514.797 163.6 514.305 164.74 513.587 165.737C512.869 166.733 511.942 167.561 510.872 168.163C509.801 168.766 508.613 169.127 507.388 169.224L505.581 169.366ZM491.18 107.323L491.178 107.325L491.18 107.323ZM491.611 107.217L491.615 107.218L491.611 107.217Z" fill="#2F2E41"/>
<path d="M448.431 534.094H439.507L437.914 525.669L433.834 534.094H410.165C409.031 534.094 407.926 533.732 407.012 533.059C406.098 532.387 405.423 531.44 405.085 530.357C404.748 529.274 404.765 528.111 405.135 527.039C405.505 525.966 406.208 525.04 407.142 524.395L426.043 511.341V502.823L445.925 504.01L448.431 534.094Z" fill="#2F2E41"/>
<path d="M568.863 534.094H559.939L558.346 525.669L554.266 534.094H530.597C529.462 534.094 528.357 533.732 527.443 533.059C526.53 532.387 525.855 531.44 525.517 530.357C525.179 529.274 525.197 528.111 525.567 527.039C525.937 525.966 526.64 525.04 527.573 524.395L546.475 511.341V502.823L566.356 504.01L568.863 534.094Z" fill="#2F2E41"/>
</svg>
