<svg width="279" height="180" viewBox="0 0 279 180" fill="none" xmlns="http://www.w3.org/2000/svg">
<path d="M140 179C122.398 179 105.191 173.751 90.5546 163.917C75.9188 154.083 64.5115 140.105 57.7752 123.751C51.0388 107.397 49.2761 89.4022 52.7098 72.041C56.1436 54.6798 64.6195 38.7325 77.066 26.2155C89.5125 13.6985 105.37 5.17407 122.634 1.72023C139.898 -1.7336 157.793 0.0382963 174.056 6.81171C190.319 13.5851 204.219 25.0559 213.999 39.7735C223.779 54.4912 228.999 71.7947 229 89.4959V89.4959C228.974 113.225 219.588 135.975 202.904 152.754C186.219 169.533 163.596 178.972 140 179V179Z" fill="#6C63FF"/>
<path d="M45.4481 102.378C47.151 98.7877 39.26 91.4799 27.8231 86.0555C16.3863 80.6312 5.73441 79.1445 4.03155 82.7349C2.32869 86.3252 10.2197 93.6331 21.6565 99.0575C33.0934 104.482 43.7453 105.968 45.4481 102.378Z" fill="#2F2E41"/>
<path d="M139.838 139.358C142.885 136.807 138.767 126.872 130.641 117.166C122.515 107.461 113.458 101.661 110.411 104.212C107.364 106.763 111.482 116.699 119.608 126.404C127.734 136.11 136.791 141.909 139.838 139.358Z" fill="#2F2E41"/>
<path d="M76.3694 159.665C101.685 159.665 122.208 139.142 122.208 113.826C122.208 88.51 101.685 67.9873 76.3694 67.9873C51.0534 67.9873 30.5308 88.51 30.5308 113.826C30.5308 139.142 51.0534 159.665 76.3694 159.665Z" fill="#2F2E41"/>
<path d="M95.7714 149.801H81.8457V174.751H95.7714V149.801Z" fill="#2F2E41"/>
<path d="M67.9201 149.801H53.9944V174.751H67.9201V149.801Z" fill="#2F2E41"/>
<path d="M84.1665 179.393C90.5756 179.393 95.7713 177.444 95.7713 175.041C95.7713 172.638 90.5756 170.689 84.1665 170.689C77.7574 170.689 72.5618 172.638 72.5618 175.041C72.5618 177.444 77.7574 179.393 84.1665 179.393Z" fill="#2F2E41"/>
<path d="M56.3152 178.812C62.7243 178.812 67.92 176.864 67.92 174.461C67.92 172.057 62.7243 170.109 56.3152 170.109C49.9061 170.109 44.7104 172.057 44.7104 174.461C44.7104 176.864 49.9061 178.812 56.3152 178.812Z" fill="#2F2E41"/>
<path d="M61.9764 56.2055C66.0694 39.7219 84.1367 30.0216 102.331 34.5394C120.525 39.0571 131.956 56.0821 127.863 72.5657C123.77 89.0493 110.191 89.1025 91.9967 84.5847C73.8025 80.0669 57.8833 72.6891 61.9764 56.2055Z" fill="#DCDCDC"/>
<path d="M69.5165 119.436C77.9568 119.436 84.7991 112.594 84.7991 104.154C84.7991 95.7133 77.9568 88.8711 69.5165 88.8711C61.0761 88.8711 54.2339 95.7133 54.2339 104.154C54.2339 112.594 61.0761 119.436 69.5165 119.436Z" fill="white"/>
<path d="M63.2355 103.77C66.049 103.77 68.3298 101.489 68.3298 98.6758C68.3298 95.8623 66.049 93.5815 63.2355 93.5815C60.4221 93.5815 58.1414 95.8623 58.1414 98.6758C58.1414 101.489 60.4221 103.77 63.2355 103.77Z" fill="#3F3D56"/>
<path d="M79.1035 135.994C79.5851 138.652 78.9918 141.392 77.4541 143.612C75.9164 145.832 73.5602 147.351 70.9031 147.835C68.246 148.318 65.5056 147.727 63.2841 146.191C61.0627 144.655 59.5419 142.3 59.0561 139.644V139.644L59.0525 139.624C58.0501 134.087 62.3312 132.128 67.8681 131.125C73.405 130.123 78.1012 130.457 79.1035 135.994Z" fill="white"/>
<path d="M258.019 99.0575C269.456 93.6332 277.347 86.3253 275.644 82.7349C273.941 79.1445 263.289 80.6312 251.852 86.0556C240.415 91.4799 232.524 98.7878 234.227 102.378C235.93 105.969 246.582 104.482 258.019 99.0575Z" fill="#2F2E41"/>
<path d="M160.068 126.404C168.194 116.699 172.311 106.763 169.265 104.212C166.218 101.661 157.16 107.461 149.034 117.166C140.908 126.872 136.791 136.807 139.838 139.358C142.885 141.909 151.942 136.109 160.068 126.404Z" fill="#2F2E41"/>
<path d="M203.306 159.665C228.622 159.665 249.145 139.142 249.145 113.826C249.145 88.51 228.622 67.9873 203.306 67.9873C177.99 67.9873 157.467 88.51 157.467 113.826C157.467 139.142 177.99 159.665 203.306 159.665Z" fill="#2F2E41"/>
<path d="M197.83 149.801H183.904V174.751H197.83V149.801Z" fill="#2F2E41"/>
<path d="M225.681 149.801H211.755V174.751H225.681V149.801Z" fill="#2F2E41"/>
<path d="M195.509 179.393C201.918 179.393 207.114 177.444 207.114 175.041C207.114 172.638 201.918 170.689 195.509 170.689C189.1 170.689 183.904 172.638 183.904 175.041C183.904 177.444 189.1 179.393 195.509 179.393Z" fill="#2F2E41"/>
<path d="M223.36 178.812C229.769 178.812 234.965 176.864 234.965 174.461C234.965 172.057 229.769 170.109 223.36 170.109C216.951 170.109 211.755 172.057 211.755 174.461C211.755 176.864 216.951 178.812 223.36 178.812Z" fill="#2F2E41"/>
<path d="M217.699 56.2055C213.606 39.7219 195.539 30.0216 177.344 34.5394C159.15 39.0571 147.719 56.0821 151.812 72.5657C155.905 89.0493 169.484 89.1025 187.679 84.5847C205.873 80.0669 221.792 72.6891 217.699 56.2055Z" fill="#DCDCDC"/>
<path d="M210.159 119.436C218.599 119.436 225.441 112.594 225.441 104.154C225.441 95.7133 218.599 88.8711 210.159 88.8711C201.718 88.8711 194.876 95.7133 194.876 104.154C194.876 112.594 201.718 119.436 210.159 119.436Z" fill="white"/>
<path d="M216.44 103.77C219.253 103.77 221.534 101.489 221.534 98.6758C221.534 95.8623 219.253 93.5815 216.44 93.5815C213.626 93.5815 211.346 95.8623 211.346 98.6758C211.346 101.489 213.626 103.77 216.44 103.77Z" fill="#3F3D56"/>
<path d="M200.572 135.994C200.09 138.652 200.683 141.392 202.221 143.612C203.759 145.832 206.115 147.351 208.772 147.835C211.429 148.318 214.17 147.727 216.391 146.191C218.613 144.655 220.133 142.3 220.619 139.644V139.644L220.623 139.624C221.625 134.087 217.344 132.128 211.807 131.125C206.27 130.123 201.574 130.457 200.572 135.994Z" fill="white"/>
</svg>
