<svg width="96" height="107" viewBox="0 0 96 107" fill="none" xmlns="http://www.w3.org/2000/svg">
<path d="M61.8443 107C66.525 107 70.3195 105.577 70.3195 103.822C70.3195 102.067 66.525 100.644 61.8443 100.644C57.1636 100.644 53.3691 102.067 53.3691 103.822C53.3691 105.577 57.1636 107 61.8443 107Z" fill="#2F2E41"/>
<path d="M41.504 106.576C46.1847 106.576 49.9791 105.153 49.9791 103.398C49.9791 101.643 46.1847 100.22 41.504 100.22C36.8233 100.22 33.0288 101.643 33.0288 103.398C33.0288 105.153 36.8233 106.576 41.504 106.576Z" fill="#2F2E41"/>
<path d="M31.6271 56.9643C33.0765 54.4501 27.759 48.6691 19.7501 44.0522C11.7412 39.4352 4.07376 37.7306 2.62436 40.2448C1.17496 42.7591 6.49249 48.54 14.5014 53.157C22.5103 57.7739 30.1777 59.4786 31.6271 56.9643Z" fill="#2F2E41"/>
<path d="M55.0642 92.5923C73.553 92.5923 88.5411 77.6042 88.5411 59.1154C88.5411 40.6267 73.553 25.6386 55.0642 25.6386C36.5755 25.6386 21.5874 40.6267 21.5874 59.1154C21.5874 77.6042 36.5755 92.5923 55.0642 92.5923Z" fill="#2F2E41"/>
<path d="M70.3193 85.3884H60.1492V103.61H70.3193V85.3884Z" fill="#2F2E41"/>
<path d="M49.979 85.3884H39.8088V103.61H49.979V85.3884Z" fill="#2F2E41"/>
<path d="M47.2208 62.0817C53.5397 62.0817 58.6622 56.9592 58.6622 50.6403C58.6622 44.3214 53.5397 39.1989 47.2208 39.1989C40.9018 39.1989 35.7793 44.3214 35.7793 50.6403C35.7793 56.9592 40.9018 62.0817 47.2208 62.0817Z" fill="white"/>
<path d="M44.4638 51.7724C45.9581 50.2793 45.9677 47.8661 44.4852 46.3823C43.0027 44.8985 40.5895 44.9059 39.0952 46.3989C37.6008 47.8919 37.5912 50.3051 39.0737 51.789C40.5562 53.2728 42.9694 53.2654 44.4638 51.7724Z" fill="#3F3D56"/>
<path d="M58.6642 36.7324C45.3022 33.7488 36.4468 29.284 39.1499 17.1782C41.8529 5.07251 54.8763 -2.32242 68.2382 0.661208C81.6002 3.64483 90.241 15.8772 87.5379 27.9829C84.8348 40.0886 72.0262 39.7159 58.6642 36.7324Z" fill="#4E4A85"/>
<path d="M90.0712 84.6336C92.876 83.8886 93.226 76.0418 90.853 67.1072C88.4799 58.1726 84.2824 51.5336 81.4775 52.2786C78.6727 53.0236 78.3227 60.8704 80.6958 69.805C83.0688 78.7396 87.2663 85.3786 90.0712 84.6336Z" fill="#2F2E41"/>
<path d="M47.4798 69.0743C41.3338 69.0743 35.5713 65.1622 35.5713 68.4386C35.5713 71.7151 41.3338 80.9394 47.4798 80.9394C53.6258 80.9394 59.1644 74.4695 59.1644 71.193C59.1644 67.9166 53.6257 69.0743 47.4798 69.0743Z" fill="white"/>
</svg>
