<svg width="54" height="54" viewBox="0 0 54 54" fill="none" xmlns="http://www.w3.org/2000/svg">
<path d="M53.32 26.66C53.32 41.3872 41.3829 53.32 26.66 53.32C11.9371 53.32 0 41.3872 0 26.66C0 11.9414 11.9371 0 26.66 0C41.3829 0 53.32 11.9414 53.32 26.66ZM27.3754 8.815C21.517 8.815 17.7805 11.2829 14.8464 15.669C14.4663 16.2372 14.5934 17.0036 15.1383 17.4167L18.8684 20.245C19.4279 20.6693 20.2252 20.5684 20.6599 20.0169C22.5803 17.5812 23.897 16.1688 26.82 16.1688C29.0161 16.1688 31.7325 17.5822 31.7325 19.7117C31.7325 21.3217 30.4035 22.1484 28.2351 23.3642C25.7063 24.7818 22.36 26.5462 22.36 30.96V31.39C22.36 32.1024 22.9376 32.68 23.65 32.68H29.67C30.3824 32.68 30.96 32.1024 30.96 31.39V31.2467C30.96 28.187 39.9025 28.0597 39.9025 19.78C39.9025 13.5448 33.4348 8.815 27.3754 8.815ZM26.66 35.475C23.9333 35.475 21.715 37.6933 21.715 40.42C21.715 43.1466 23.9333 45.365 26.66 45.365C29.3867 45.365 31.605 43.1466 31.605 40.42C31.605 37.6933 29.3867 35.475 26.66 35.475Z" fill="white"/>
</svg>
