<svg width="54" height="54" viewBox="0 0 54 54" fill="none" xmlns="http://www.w3.org/2000/svg">
<path d="M26.9005 0C12.1736 0 0.241699 11.9319 0.241699 26.6588C0.241699 41.3856 12.1736 53.3175 26.9005 53.3175C41.6273 53.3175 53.5592 41.3856 53.5592 26.6588C53.5592 11.9319 41.6273 0 26.9005 0ZM33.0384 37.634L23.5574 30.7436C23.2241 30.4963 23.0306 30.1094 23.0306 29.7009V11.6095C23.0306 10.9 23.6111 10.3195 24.3206 10.3195H29.4803C30.1898 10.3195 30.7703 10.9 30.7703 11.6095V26.4115L37.5962 31.3778C38.1767 31.797 38.2949 32.6032 37.8757 33.1837L34.8443 37.3545C34.4251 37.9242 33.6189 38.0532 33.0384 37.634Z" fill="white"/>
</svg>
