<svg width="313" height="256" viewBox="0 0 313 256" fill="none" xmlns="http://www.w3.org/2000/svg">
<path d="M73.7139 255.549C79.7356 255.549 84.6171 253.718 84.6171 251.46C84.6171 249.202 79.7356 247.372 73.7139 247.372C67.6923 247.372 62.8108 249.202 62.8108 251.46C62.8108 253.718 67.6923 255.549 73.7139 255.549Z" fill="#2F2E41"/>
<path d="M99.8814 255.004C105.903 255.004 110.785 253.173 110.785 250.915C110.785 248.657 105.903 246.826 99.8814 246.826C93.8598 246.826 88.9783 248.657 88.9783 250.915C88.9783 253.173 93.8598 255.004 99.8814 255.004Z" fill="#2F2E41"/>
<path d="M134.62 186.281C144.923 180.341 151.764 172.904 149.899 169.67C148.035 166.435 138.171 168.628 127.867 174.568C117.564 180.507 110.723 187.944 112.588 191.179C114.453 194.413 124.317 192.221 134.62 186.281Z" fill="#2F2E41"/>
<path d="M124.948 200.845C128.758 177.367 112.813 155.245 89.3351 151.435C65.8568 147.625 43.7352 163.569 39.9252 187.048C36.1152 210.526 52.0596 232.648 75.5379 236.458C99.0162 240.268 121.138 224.323 124.948 200.845Z" fill="#2F2E41"/>
<path d="M75.8945 227.746H62.8108V251.188H75.8945V227.746Z" fill="#2F2E41"/>
<path d="M102.062 227.746H88.9783V251.188H102.062V227.746Z" fill="#2F2E41"/>
<path d="M83.5268 197.762C91.656 197.762 98.2461 191.172 98.2461 183.043C98.2461 174.914 91.656 168.324 83.5268 168.324C75.3976 168.324 68.8076 174.914 68.8076 183.043C68.8076 191.172 75.3976 197.762 83.5268 197.762Z" fill="white"/>
<path d="M83.5268 187.95C86.2365 187.95 88.4332 185.753 88.4332 183.043C88.4332 180.333 86.2365 178.137 83.5268 178.137C80.817 178.137 78.6204 180.333 78.6204 183.043C78.6204 185.753 80.817 187.95 83.5268 187.95Z" fill="#3F3D56"/>
<path d="M40.6598 153.895C37.1823 138.321 48.2984 122.585 65.4884 118.746C82.6783 114.908 99.4326 124.421 102.91 139.995C106.388 155.569 94.9951 161.313 77.8052 165.151C60.6152 168.989 44.1372 169.469 40.6598 153.895Z" fill="#CCCCCC"/>
<path d="M53.3846 183.191C54.9845 179.817 47.5706 172.951 36.8252 167.855C26.0798 162.759 16.072 161.362 14.4721 164.735C12.8722 168.108 20.286 174.974 31.0314 180.071C41.7768 185.167 51.7847 186.564 53.3846 183.191Z" fill="#2F2E41"/>
<path d="M61.282 209.483C61.282 213.698 72.1352 222.022 84.1785 222.022C96.2218 222.022 107.514 210.155 107.514 205.94C107.514 201.725 96.2217 206.758 84.1785 206.758C72.1353 206.758 61.282 205.268 61.282 209.483Z" fill="white"/>
<path d="M232.609 255.549C238.63 255.549 243.512 253.718 243.512 251.46C243.512 249.202 238.63 247.372 232.609 247.372C226.587 247.372 221.706 249.202 221.706 251.46C221.706 253.718 226.587 255.549 232.609 255.549Z" fill="#2F2E41"/>
<path d="M206.441 255.004C212.463 255.004 217.344 253.173 217.344 250.915C217.344 248.657 212.463 246.826 206.441 246.826C200.42 246.826 195.538 248.657 195.538 250.915C195.538 253.173 200.42 255.004 206.441 255.004Z" fill="#2F2E41"/>
<path d="M193.735 191.179C195.6 187.944 188.759 180.507 178.455 174.568C168.152 168.628 158.288 166.435 156.423 169.67C154.559 172.904 161.4 180.341 171.703 186.281C182.006 192.221 191.87 194.414 193.735 191.179Z" fill="#2F2E41"/>
<path d="M223.886 237.014C247.672 237.014 266.954 217.732 266.954 193.946C266.954 170.161 247.672 150.879 223.886 150.879C200.101 150.879 180.819 170.161 180.819 193.946C180.819 217.732 200.101 237.014 223.886 237.014Z" fill="#2F2E41"/>
<path d="M243.512 227.746H230.428V251.188H243.512V227.746Z" fill="#2F2E41"/>
<path d="M217.344 227.746H204.261V251.188H217.344V227.746Z" fill="#2F2E41"/>
<path d="M213.796 197.762C221.925 197.762 228.515 191.172 228.515 183.043C228.515 174.914 221.925 168.324 213.796 168.324C205.667 168.324 199.077 174.914 199.077 183.043C199.077 191.172 205.667 197.762 213.796 197.762Z" fill="white"/>
<path d="M210.249 184.5C212.172 182.579 212.184 179.474 210.277 177.565C208.37 175.656 205.265 175.666 203.343 177.587C201.42 179.507 201.408 182.612 203.315 184.521C205.222 186.43 208.327 186.42 210.249 184.5Z" fill="#3F3D56"/>
<path d="M228.518 165.151C211.328 161.313 199.935 155.569 203.413 139.995C206.89 124.421 223.645 114.908 240.834 118.746C258.024 122.584 269.141 138.321 265.663 153.895C262.186 169.469 245.708 168.989 228.518 165.151Z" fill="#4E4A85"/>
<path d="M268.922 226.775C272.531 225.817 272.981 215.722 269.928 204.228C266.875 192.733 261.475 184.192 257.867 185.151C254.258 186.109 253.808 196.204 256.861 207.698C259.914 219.193 265.314 227.733 268.922 226.775Z" fill="#2F2E41"/>
<path d="M214.129 206.758C206.223 206.758 198.809 201.725 198.809 205.94C198.809 210.156 206.223 222.022 214.129 222.022C222.036 222.022 229.161 213.699 229.161 209.484C229.161 205.269 222.036 206.758 214.129 206.758Z" fill="white"/>
<path d="M158.472 122.539H154.647C151.221 122.535 147.936 121.172 145.513 118.75C143.091 116.327 141.728 113.042 141.724 109.616V106.405C141.724 98.4522 143.231 91.793 146.203 86.6128C149.805 80.5871 154.007 74.9412 158.745 69.7612C161.891 66.598 164.745 63.1579 167.273 59.4824C169.087 56.627 170.023 53.3023 169.966 49.9199C169.966 41.9419 164.769 38.0635 154.076 38.0635C148.144 38.1305 142.25 39.0152 136.561 40.6924C134.366 41.3187 132.057 41.4273 129.813 41.0094C127.57 40.5916 125.454 39.6588 123.633 38.2845C121.811 36.9101 120.333 35.1317 119.316 33.0893C118.298 31.0469 117.768 28.7961 117.768 26.5142V20.0142C117.756 17.216 118.555 14.4743 120.069 12.1213C121.584 9.7684 123.748 7.90527 126.3 6.75781C136.349 2.46939 147.186 0.337503 158.11 0.500001C169.555 0.500001 179.886 2.42236 188.817 6.21289C197.765 10.0122 204.834 15.3696 209.829 22.1367C214.808 28.8559 217.454 37.0184 217.365 45.3809C217.365 54.3609 214.913 62.1821 210.078 68.6274C205.296 75.0073 198.44 81.9917 189.702 89.3877C185.098 93.2166 180.735 97.3267 176.639 101.694C173.993 104.544 172.123 108.026 171.207 111.806C170.698 114.812 169.138 117.541 166.806 119.506C164.474 121.471 161.521 122.546 158.472 122.539V122.539Z" fill="#6C63FF"/>
<path d="M156.345 183.311H155.841C149.491 183.306 143.403 180.781 138.915 176.29C134.426 171.799 131.905 165.709 131.905 159.359C131.905 153.01 134.426 146.92 138.915 142.429C143.403 137.938 149.491 135.412 155.841 135.408H156.345C159.492 135.406 162.608 136.024 165.516 137.227C168.423 138.43 171.066 140.194 173.291 142.418C175.517 144.642 177.283 147.283 178.487 150.19C179.692 153.097 180.312 156.213 180.312 159.359C180.312 162.506 179.692 165.622 178.487 168.529C177.283 171.436 175.517 174.077 173.291 176.301C171.066 178.525 168.423 180.289 165.516 181.492C162.608 182.695 159.492 183.313 156.345 183.311Z" fill="#6C63FF"/>
<path d="M312 256H1C0.734784 256 0.480444 255.895 0.292908 255.707C0.105371 255.52 0 255.265 0 255C0 254.735 0.105371 254.48 0.292908 254.293C0.480444 254.105 0.734784 254 1 254H312C312.265 254 312.52 254.105 312.707 254.293C312.895 254.48 313 254.735 313 255C313 255.265 312.895 255.52 312.707 255.707C312.52 255.895 312.265 256 312 256Z" fill="#CCCCCC"/>
</svg>

