<svg width="386" height="242" viewBox="0 0 386 242" fill="none" xmlns="http://www.w3.org/2000/svg">
<path d="M96.56 237.049C86.5286 234.832 80.1965 224.916 82.417 214.9C84.6375 204.884 94.5696 198.562 104.601 200.779C114.632 202.996 120.964 212.912 118.744 222.928C116.523 232.944 106.591 239.266 96.56 237.049Z" fill="white"/>
<path d="M366.791 229.51C356.517 229.51 348.188 221.194 348.188 210.935C348.188 200.677 356.517 192.361 366.791 192.361C377.065 192.361 385.394 200.677 385.394 210.935C385.394 221.194 377.065 229.51 366.791 229.51Z" fill="white"/>
<path d="M121.14 67.0238H154.001C155.676 67.0219 157.282 66.3565 158.467 65.1737C159.652 63.9908 160.318 62.3871 160.32 60.7143V27.9048C160.318 26.232 159.652 24.6282 158.467 23.4454C157.282 22.2625 155.676 21.5972 154.001 21.5952H121.14C119.465 21.5972 117.859 22.2625 116.674 23.4454C115.489 24.6282 114.823 26.232 114.821 27.9048V60.7143C114.823 62.3871 115.489 63.9908 116.674 65.1737C117.859 66.3565 119.465 67.0219 121.14 67.0238ZM154.001 24.1191C155.006 24.1202 155.97 24.5194 156.68 25.2291C157.391 25.9388 157.791 26.9011 157.792 27.9048V60.7143C157.791 61.718 157.391 62.6803 156.68 63.39C155.97 64.0997 155.006 64.4989 154.001 64.5H121.14C120.135 64.4989 119.171 64.0997 118.46 63.39C117.749 62.6803 117.35 61.718 117.349 60.7143V27.9048C117.35 26.9011 117.749 25.9388 118.46 25.2291C119.171 24.5194 120.135 24.1202 121.14 24.1191H154.001Z" fill="#F2F2F2"/>
<path d="M105.974 45.5714H138.834C140.51 45.5695 142.116 44.9041 143.301 43.7213C144.485 42.5384 145.152 40.9347 145.154 39.2619V6.45238C145.152 4.77957 144.485 3.17585 143.301 1.993C142.116 0.810151 140.51 0.144767 138.834 0.142853H105.974C104.298 0.144767 102.692 0.810151 101.508 1.993C100.323 3.17585 99.6564 4.77957 99.6545 6.45238V39.2619C99.6564 40.9347 100.323 42.5384 101.508 43.7213C102.692 44.9041 104.298 45.5695 105.974 45.5714ZM138.834 2.66666C139.839 2.66776 140.803 3.06696 141.514 3.77668C142.225 4.4864 142.625 5.44868 142.626 6.45238V39.2619C142.625 40.2656 142.225 41.2279 141.514 41.9376C140.803 42.6473 139.839 43.0465 138.834 43.0476H105.974C104.969 43.0465 104.005 42.6473 103.294 41.9376C102.583 41.2279 102.183 40.2656 102.182 39.2619V6.45238C102.183 5.44868 102.583 4.4864 103.294 3.77668C104.005 3.06696 104.969 2.66776 105.974 2.66666H138.834Z" fill="#F2F2F2"/>
<path d="M231.022 118.304C226.508 118.304 222.848 114.65 222.848 110.143C222.848 105.636 226.508 101.983 231.022 101.983C235.536 101.983 239.195 105.636 239.195 110.143C239.195 114.65 235.536 118.304 231.022 118.304Z" fill="#F2F2F2"/>
<path d="M8.58181 159.947C4.06784 159.947 0.408552 156.293 0.408552 151.786C0.408552 147.279 4.06784 143.625 8.58181 143.625C13.0958 143.625 16.7551 147.279 16.7551 151.786C16.7551 156.293 13.0958 159.947 8.58181 159.947Z" fill="#F2F2F2"/>
</svg>
