<svg width="612" height="403" viewBox="0 0 612 403" fill="none" xmlns="http://www.w3.org/2000/svg">
<path d="M514.861 350.82L514.063 348.463C556.662 334.06 583.306 310.858 591.115 281.364C601.041 243.87 579.477 200.36 530.395 158.85C481.063 117.129 409.925 82.5112 330.083 61.3745L330.72 58.9681C410.911 80.1978 482.395 114.995 532.002 156.95C581.859 199.115 603.707 243.526 593.522 282.001C585.489 312.341 558.289 336.138 514.861 350.82Z" fill="#F0F0F0"/>
<path d="M307.839 44.1929C292.37 39.1565 276.459 34.4671 260.547 30.2547C168.984 6.01454 78.9757 -2.59196 0.250366 5.37043L0 2.89354C79.0189 -5.09494 169.335 3.53217 261.184 27.8483C277.141 32.0728 293.097 36.7756 308.61 41.8266L307.839 44.1929Z" fill="#F0F0F0"/>
<path d="M456.368 354.554L455.571 352.196C498.17 337.793 524.814 314.592 532.623 285.097C542.549 247.603 520.985 204.094 471.903 162.584C422.571 120.863 351.433 86.2448 271.591 65.108L272.227 62.7017C352.419 83.9314 423.903 118.729 473.51 160.684C523.367 202.849 545.215 247.26 535.029 285.734C526.997 316.074 499.796 339.871 456.368 354.554Z" fill="#F0F0F0"/>
<path d="M483.427 353.359C505.621 351.897 527.712 357.466 546.561 369.274C550.664 371.744 554.352 374.845 557.489 378.463C560.432 382.087 562.35 386.432 563.045 391.048C563.779 395.338 564.033 399.812 565.798 403.849C566.732 405.903 568.089 407.735 569.781 409.227C571.473 410.719 573.461 411.836 575.615 412.506C580.938 414.314 586.594 414.101 592.118 413.701C598.25 413.257 604.614 412.698 610.458 415.037C611.166 415.32 611.565 414.205 610.858 413.922C600.689 409.853 589.695 414.224 579.23 412.232C574.347 411.303 569.714 408.896 567.347 404.345C565.276 400.365 565.01 395.752 564.304 391.401C563.692 386.889 561.985 382.595 559.331 378.894C556.388 375.128 552.825 371.889 548.796 369.318C539.817 363.385 529.961 358.9 519.589 356.028C507.77 352.685 495.466 351.389 483.209 352.194C482.451 352.245 482.674 353.409 483.427 353.359V353.359Z" fill="white"/>
<path d="M562.959 388.823C555.78 391.604 547.817 391.578 540.658 388.749C539.948 388.468 539.55 389.583 540.258 389.864C547.714 392.794 556.001 392.805 563.465 389.894C564.176 389.616 563.666 388.547 562.959 388.823V388.823Z" fill="white"/>
<path d="M149.956 113.912C155.455 113.912 159.912 109.455 159.912 103.956C159.912 98.4575 155.455 94 149.956 94C144.458 94 140 98.4575 140 103.956C140 109.455 144.458 113.912 149.956 113.912Z" fill="#FD6584"/>
<path d="M153.956 245.912C159.455 245.912 163.912 241.455 163.912 235.956C163.912 230.458 159.455 226 153.956 226C148.458 226 144 230.458 144 235.956C144 241.455 148.458 245.912 153.956 245.912Z" fill="#E6E6E6"/>
</svg>
