<svg width="521" height="474" viewBox="0 0 521 474" fill="none" xmlns="http://www.w3.org/2000/svg">
<g clip-path="url(#clip0_18_1354)">
<path d="M450.953 401.628H68.7686V336.749H74.6643V288.458C74.6772 277.08 79.2029 266.172 87.2486 258.127C95.2943 250.082 106.203 245.556 117.581 245.543H402.834C414.212 245.556 425.121 250.082 433.167 258.127C441.212 266.172 445.738 277.08 445.751 288.458V336.749H450.953V401.628Z" fill="#E4E4E4"/>
<path d="M461.308 473.037H442.283V472.69C442.264 455.865 435.571 439.734 423.673 427.836C411.775 415.939 395.643 409.247 378.817 409.228H140.905C124.078 409.247 107.947 415.939 96.0485 427.836C84.1504 439.734 77.4577 455.865 77.4386 472.69V473.037H58.4132C54.0786 473.032 49.923 471.308 46.858 468.243C43.793 465.178 42.0689 461.023 42.064 456.689V350.633C36.5393 347.512 32.0459 330.56 34.9646 317.023C36.7962 308.527 42.084 298.267 56.873 297.632C71.2696 297.013 81.9554 310.528 82.9099 323.537C83.4272 330.383 81.4164 337.181 77.2583 342.644H77.4386V357.774C108.657 347.77 139.92 342.68 170.366 342.644C201.521 342.675 232.459 347.823 261.944 357.884C323.249 338.057 383.919 337.671 442.283 356.742V342.644H442.463C438.305 337.181 436.294 330.383 436.812 323.537C437.858 309.268 449.532 297.647 462.833 297.631H462.877C478.563 297.631 484.11 307.074 486.003 314.999C489.352 329.025 483.203 347.486 477.657 350.632V456.689C477.653 461.023 475.929 465.178 472.864 468.243C469.799 471.308 465.643 473.032 461.308 473.037Z" fill="#CACACA"/>
<path d="M355.015 444.657L364.199 451.217L393.872 418.919L380.318 409.238L355.015 444.657Z" fill="#FFB6B6"/>
<path d="M354.815 439.986L357.4 441.832L370.423 444.938L372.9 452.904L372.901 452.905C375.957 455.089 378.021 458.397 378.638 462.102C379.256 465.807 378.376 469.606 376.192 472.662L375.925 473.037L346.314 451.886L354.815 439.986Z" fill="#2F2E41"/>
<path d="M417.246 358.187H349.815C343.527 358.184 337.497 355.683 333.052 351.236C328.607 346.789 326.11 340.759 326.11 334.471C326.11 328.184 328.607 322.153 333.052 317.706C337.497 313.259 343.527 310.759 349.815 310.755H417.246C423.536 310.755 429.569 313.254 434.016 317.702C438.464 322.149 440.963 328.181 440.963 334.471C440.963 340.761 438.464 346.793 434.016 351.241C429.569 355.688 423.536 358.187 417.246 358.187Z" fill="#2F2E41"/>
<path d="M384.162 192.585L395.039 200.866L408.156 204.897C408.156 204.897 413.579 281.171 418.465 286.056C423.351 290.942 418.944 291.074 419.926 297.421C420.908 303.768 423.294 316.778 423.294 316.778C390.313 334.236 361.879 334.704 339.039 314.276C338.747 313.012 338.896 311.687 339.46 310.519C340.025 309.351 340.971 308.411 342.143 307.855C346.394 305.6 338.225 295.073 341.698 293.313C345.172 291.553 340.286 276.285 340.286 276.285L343.492 244.429L340.959 239.336L347.139 208.177L357.862 204.261L362.146 193.942L384.162 192.585Z" fill="#6C63FF"/>
<path d="M390.976 121.374C390.927 122.751 391.181 124.122 391.72 125.391C392.258 126.66 393.069 127.795 394.094 128.717C395.118 129.638 396.333 130.324 397.652 130.726C398.97 131.128 400.361 131.235 401.725 131.041L417.054 160.834L425.594 145.661L409.729 119.696C409.251 117.425 407.956 115.408 406.091 114.028C404.226 112.648 401.919 111.999 399.607 112.206C397.296 112.413 395.14 113.46 393.55 115.15C391.959 116.84 391.043 119.054 390.976 121.374H390.976Z" fill="#FFB6B6"/>
<path d="M416.791 128.661L449.668 179.615L449.56 179.849C449.436 180.118 441.991 196.196 434.777 210.923C433.666 213.191 432.56 215.427 431.488 217.568C431.025 218.492 430.569 219.397 430.12 220.282C427.09 226.255 424.443 231.192 422.863 233.537C419.368 238.839 414.164 242.786 408.116 244.723L407.964 244.762L407.819 244.702C404.86 243.453 402.416 241.234 400.888 238.41C399.36 235.586 398.84 232.326 399.414 229.167C402.266 213.93 408.62 199.564 417.976 187.203L423.306 180.178L404.784 139.911L416.791 128.661Z" fill="#6C63FF"/>
<path d="M359.988 115.131C360.037 116.509 359.783 117.88 359.244 119.149C358.706 120.418 357.895 121.553 356.871 122.475C355.846 123.396 354.631 124.082 353.313 124.484C351.994 124.885 350.603 124.993 349.239 124.799L333.91 154.591L325.37 139.419L341.236 113.454C341.713 111.183 343.008 109.166 344.873 107.786C346.738 106.405 349.045 105.757 351.357 105.964C353.668 106.171 355.824 107.218 357.414 108.908C359.005 110.597 359.921 112.812 359.988 115.131H359.988Z" fill="#FFB6B6"/>
<path d="M334.173 122.419L301.296 173.372L301.404 173.607C301.529 173.875 308.974 189.954 316.187 204.681C317.298 206.949 318.404 209.184 319.476 211.326C319.939 212.25 320.395 213.154 320.844 214.04C323.874 220.013 326.521 224.95 328.101 227.295C331.596 232.597 336.8 236.544 342.848 238.481L343 238.52L343.146 238.459C346.104 237.211 348.549 234.992 350.076 232.168C351.604 229.344 352.124 226.084 351.55 222.925C348.698 207.687 342.344 193.321 332.988 180.961L327.658 173.936L346.181 133.669L334.173 122.419Z" fill="#6C63FF"/>
<path d="M373.028 187.976C384.91 187.976 394.542 178.344 394.542 166.463C394.542 154.582 384.91 144.95 373.028 144.95C361.146 144.95 351.514 154.582 351.514 166.463C351.514 178.344 361.146 187.976 373.028 187.976Z" fill="#FFB6B6"/>
<path d="M355.505 147.981C357.274 142.835 366.081 139.265 380.36 138.768C394.638 138.272 398.259 155.097 398.259 155.097C407.791 162.829 388.081 183.529 387.128 182.783L387.556 178.894C388.266 172.452 391.283 167.426 387.446 160.713L383.762 160.755L376.775 162.098C376.339 162.182 375.888 162.12 375.491 161.923C375.095 161.725 374.774 161.402 374.578 161.004C374.383 160.605 374.324 160.154 374.411 159.719C374.497 159.284 374.725 158.89 375.057 158.597L375.121 158.54L374.963 158.294C372.501 159.424 369.965 160.471 367.274 160.629C364.246 160.807 360.936 159.602 359.486 156.939C359.099 156.206 358.862 155.404 358.79 154.579C354.708 156.21 352.841 161.243 352.841 161.243C352.841 161.243 353.735 153.128 355.505 147.981Z" fill="#2F2E41"/>
<path d="M413.609 435.506L404.996 442.798L372.768 413.049L385.479 402.286L413.609 435.506Z" fill="#FFB6B6"/>
<path d="M422.875 441.994L395.104 465.508L394.806 465.157C392.379 462.29 391.19 458.577 391.5 454.834C391.811 451.09 393.596 447.624 396.462 445.196L396.463 445.195L398.277 437.052L411 432.886L413.425 430.834L422.875 441.994Z" fill="#2F2E41"/>
<path d="M360.38 353.247L367.499 337.81C367.419 323.729 355.632 312.293 341.577 313.176C333.751 313.667 326.422 318.044 323.394 331.055C315.607 364.51 392.008 434.13 392.008 434.13L406.046 425.454L406.693 416.289L398.831 411.444L398.824 403.628L391.327 400.072L360.38 353.247Z" fill="#2F2E41"/>
<path d="M407.15 348.996L398.351 336.058C397.272 322.018 408.08 309.652 422.159 309.376C430 309.222 437.664 312.982 441.752 325.699C452.263 358.401 381.845 434.066 381.845 434.066L367.141 426.575L365.743 417.494L373.18 412.018L372.544 404.228L379.723 400.068L407.15 348.996Z" fill="#2F2E41"/>
<path d="M376.178 243.046V247.18H362.472V243.046H366.717V233.086L362.75 235.361V230.894L368.853 227.426H371.905V243.046L376.178 243.046Z" fill="white"/>
<path d="M379.271 244.821C377.967 243.083 377.315 240.568 377.315 237.275C377.315 234.039 377.967 231.556 379.271 229.826C379.964 229.013 380.825 228.36 381.795 227.912C382.765 227.464 383.821 227.232 384.889 227.232C385.958 227.232 387.013 227.464 387.983 227.912C388.953 228.36 389.815 229.013 390.508 229.826C391.812 231.556 392.464 234.039 392.464 237.275C392.464 240.567 391.812 243.083 390.508 244.821C389.817 245.638 388.957 246.295 387.986 246.745C387.016 247.196 385.959 247.429 384.889 247.429C383.819 247.429 382.763 247.196 381.792 246.745C380.822 246.295 379.961 245.638 379.271 244.821ZM386.803 242.061C387.272 240.511 387.469 238.892 387.386 237.275C387.467 235.69 387.27 234.103 386.803 232.587C386.684 232.171 386.433 231.805 386.088 231.545C385.742 231.285 385.322 231.144 384.889 231.144C384.457 231.144 384.036 231.285 383.691 231.545C383.345 231.805 383.094 232.171 382.975 232.587C382.508 234.103 382.311 235.69 382.392 237.275C382.309 238.892 382.506 240.511 382.975 242.061C383.091 242.48 383.341 242.849 383.687 243.112C384.032 243.375 384.455 243.518 384.889 243.518C385.324 243.518 385.746 243.375 386.092 243.112C386.438 242.849 386.688 242.48 386.803 242.061Z" fill="white"/>
<path d="M230.013 462.058L219.489 462.058L214.482 421.466L230.015 421.467L230.013 462.058Z" fill="#A0616A"/>
<path d="M230.384 473.037L198.02 473.036V472.626C198.02 469.286 199.348 466.082 201.71 463.72C204.072 461.358 207.276 460.031 210.617 460.03H210.618L216.529 455.546L227.559 460.031L230.384 460.031L230.384 473.037Z" fill="#2F2E41"/>
<path d="M304.48 462.058L315.003 462.058L320.01 421.466L304.477 421.467L304.48 462.058Z" fill="#A0616A"/>
<path d="M304.109 473.037L336.473 473.036V472.626C336.472 469.286 335.145 466.082 332.783 463.72C330.42 461.358 327.217 460.031 323.876 460.03H323.875L317.963 455.546L306.934 460.031L304.108 460.031L304.109 473.037Z" fill="#2F2E41"/>
<path d="M214.019 391.637C214.174 389.321 215.41 376.512 215.41 376.512L218.37 349.347L223.587 277.338L223.928 272.624L251.257 267.377L269.936 258.424L292.137 265.52L309.424 272.003C309.424 272.003 309.454 274.777 309.587 278.13C309.765 282.518 310.076 287.898 310.816 289.296C312.052 291.768 311.741 305.036 311.741 305.036C311.741 305.036 312.969 332.031 314.516 334.991C316.063 337.951 316.373 344.115 315.907 345.351C315.441 346.586 317.454 379.006 317.454 379.006C317.454 379.006 322.62 436.375 319.379 445.026C316.137 453.676 303.889 448.01 303.889 448.01C303.889 448.01 304.481 445.701 300.929 444.613C297.377 443.525 286.557 362.178 286.557 362.178C286.557 362.178 284.544 345.499 282.694 340.718C280.844 335.938 279.142 322.507 279.142 322.507C279.142 322.507 267.716 300.278 267.568 295.334C267.568 295.334 266.073 290.709 264.66 295.801C263.246 300.892 259.08 313.087 259.08 313.087L255.017 328.064L250.236 350.442L247.143 369.282C247.143 369.282 242.51 394.286 241.77 395.367C241.03 396.447 241.77 419.291 241.77 419.291C241.77 419.291 238.188 438.745 233.127 442.142C228.065 445.538 214.654 442.196 214.654 442.196C214.654 442.196 213.863 393.953 214.019 391.637Z" fill="#2F2E41"/>
<path d="M225.678 197.508L231.754 213.415L224.257 221.173L227.558 224.126L225.123 228.301L218.773 272.056L253.585 283.532L265.307 270.756L274.55 283.532L314.831 274.977L304.559 219.179V215.532L301.658 208.488V193.577L314.978 149.191L286.457 142.231L275.527 134.711L271.99 145.287L256.93 142.958L256.537 135.013L245.015 144.476L229.652 146.882L218.034 149.191L216.554 152.408L219.513 151.764L224.694 193.609L225.678 197.508Z" fill="#2F2E41"/>
<path d="M249.103 154.556L256.538 135.059L275.527 134.711L281.828 154.556L304.477 281.071C304.477 281.071 235.091 300.393 235.794 277.167C236.534 252.747 239.873 220.31 239.873 220.31L249.103 154.556Z" fill="#3F3D56"/>
<path d="M265.608 129.605C277.962 129.605 287.977 119.591 287.977 107.237C287.977 94.8834 277.962 84.8688 265.608 84.8688C253.253 84.8688 243.238 94.8834 243.238 107.237C243.238 119.591 253.253 129.605 265.608 129.605Z" fill="#A0616A"/>
<path d="M241.919 91.0102C245.561 87.0466 250.116 79.7912 263.914 76.7445C280.963 72.9797 289.019 88.3801 284.719 88.6326C297.291 92.4394 289.215 118.454 285.611 116.273C285.58 116.251 285.55 116.228 285.522 116.203C283.584 114.776 281.957 112.968 280.74 110.891C279.524 108.814 278.744 106.51 278.448 104.121L277.764 97.965C277.667 102.974 272.547 103.636 267.316 101.792C267.626 100.694 268.216 99.695 269.029 98.8946C269.842 98.0941 270.849 97.5195 271.952 97.2273C268.753 100.178 264.588 102.29 258.771 102.962C259.485 100.199 260.907 98.1642 263.134 96.9584L262.928 96.7556C260.797 98.3776 258.575 99.9366 256.012 100.671C253.129 101.497 249.674 101.05 247.699 98.7936C247.167 98.1708 246.765 97.4477 246.517 96.6671C246.944 100.634 244.284 105.162 242.217 104.384C240.497 104.05 239.495 93.6489 241.919 91.0102Z" fill="#2F2E41"/>
<path d="M293.189 106.004L313.533 140.229L328.57 133.127C328.57 133.127 302.66 100.768 301.835 99.8365C302.188 98.2637 302.056 96.6206 301.455 95.1246C300.854 93.6286 299.813 92.3502 298.47 91.4585C297.127 90.5668 295.545 90.1039 293.933 90.1309C292.321 90.158 290.755 90.6737 289.443 91.61C288.13 92.5462 287.133 93.8588 286.583 95.3741C286.033 96.8894 285.956 98.536 286.362 100.096C286.768 101.656 287.638 103.056 288.857 104.111C290.076 105.166 291.587 105.826 293.189 106.004Z" fill="#A0616A"/>
<path d="M303.039 191.054L334.613 168.31C336.673 166.826 338.4 164.929 339.685 162.739C340.97 160.55 341.784 158.116 342.074 155.595C342.365 153.073 342.126 150.518 341.373 148.094C340.62 145.669 339.37 143.429 337.702 141.515L314.979 115.451L305.08 128.864L312.71 144.816L297.936 148.712L303.039 191.054Z" fill="#2F2E41"/>
<path d="M248.848 109.221L228.504 143.445L213.467 136.344C213.467 136.344 239.377 103.984 240.203 103.053C239.849 101.481 239.981 99.8375 240.582 98.3415C241.183 96.8455 242.224 95.5671 243.567 94.6754C244.91 93.7837 246.492 93.3208 248.104 93.3478C249.716 93.3749 251.282 93.8906 252.594 94.8268C253.907 95.7631 254.904 97.0757 255.454 98.591C256.004 100.106 256.081 101.753 255.675 103.313C255.269 104.873 254.399 106.273 253.18 107.328C251.961 108.383 250.45 109.043 248.848 109.221Z" fill="#A0616A"/>
<path d="M238.998 194.271L207.424 171.527C205.364 170.043 203.637 168.146 202.352 165.956C201.067 163.767 200.254 161.333 199.963 158.811C199.672 156.29 199.911 153.735 200.664 151.311C201.417 148.886 202.667 146.646 204.335 144.732L227.058 118.668L236.957 132.081L229.327 148.033L244.101 151.929L238.998 194.271Z" fill="#2F2E41"/>
<path d="M270.942 187.903C271.655 188.746 272.031 189.824 271.996 190.927C272.02 192.02 271.667 193.088 270.997 193.951C270.274 194.844 269.319 195.521 268.237 195.907C265.622 196.813 262.778 196.813 260.163 195.907C259.081 195.521 258.126 194.844 257.402 193.951C256.732 193.088 256.379 192.02 256.403 190.927C256.367 189.811 256.742 188.72 257.458 187.862C258.241 186.992 259.281 186.394 260.427 186.155C259.422 185.844 258.526 185.252 257.846 184.449C257.219 183.689 256.885 182.73 256.903 181.744C256.884 180.71 257.222 179.701 257.86 178.887C258.545 178.039 259.446 177.392 260.468 177.014C262.88 176.145 265.52 176.145 267.931 177.014C268.953 177.392 269.855 178.039 270.54 178.887C271.178 179.701 271.516 180.71 271.497 181.744C271.514 182.749 271.175 183.727 270.54 184.505C269.88 185.305 268.996 185.89 268.001 186.183C269.134 186.443 270.16 187.043 270.942 187.903ZM266.364 192.12C266.632 191.948 266.849 191.709 266.995 191.427C267.141 191.145 267.211 190.829 267.196 190.511C267.204 190.19 267.135 189.871 266.995 189.582C266.855 189.292 266.648 189.04 266.392 188.847C265.804 188.277 265.018 187.959 264.2 187.959C263.382 187.959 262.595 188.277 262.008 188.847C261.751 189.04 261.544 189.292 261.405 189.582C261.265 189.871 261.196 190.19 261.203 190.511C261.189 190.829 261.258 191.145 261.404 191.427C261.55 191.709 261.768 191.948 262.036 192.12C262.699 192.484 263.443 192.675 264.2 192.675C264.956 192.675 265.701 192.484 266.364 192.12ZM262.438 180.787C262.206 180.974 262.023 181.214 261.905 181.487C261.786 181.76 261.736 182.058 261.758 182.355C261.758 183.576 262.572 184.389 264.2 184.796C265.827 184.39 266.641 183.576 266.641 182.355C266.663 182.058 266.613 181.76 266.495 181.487C266.376 181.214 266.193 180.974 265.962 180.787C265.435 180.452 264.824 180.274 264.2 180.274C263.576 180.274 262.964 180.452 262.438 180.787H262.438Z" fill="white"/>
<path d="M20.8646 122.104C21.3497 122.821 21.9862 123.423 22.7291 123.868C23.4721 124.312 24.3035 124.589 25.1648 124.677C26.0261 124.766 26.8964 124.664 27.7143 124.38C28.5322 124.096 29.2778 123.636 29.8986 123.033L48.7054 132.481L47.4242 121.62L29.7614 114.313C28.6784 113.337 27.2751 112.792 25.8174 112.782C24.3597 112.772 22.9489 113.297 21.8523 114.257C20.7557 115.217 20.0495 116.547 19.8674 117.993C19.6854 119.439 20.0402 120.902 20.8646 122.104Z" fill="#9E616A"/>
<path d="M98.6676 165.943L89.3036 159.485C89.3036 159.485 78.5804 158.758 76.9677 155.349C75.3549 151.94 75.0831 153.086 73.3639 152.679C71.6446 152.271 70.7574 147.14 67.8755 147.745C61.3914 149.107 30.8974 128.959 34.1885 126.441L36.6349 116.126C39.2199 117.091 41.915 117.73 44.658 118.028C48.8055 118.407 58.5772 123.145 60.0247 124.699C61.4721 126.253 64.0362 125.65 67.4747 126.466C70.9132 127.281 72.1166 132.812 77.8195 131.34C85.8438 129.269 127.415 148.986 131.913 150.826C136.849 152.846 140.296 158.867 140.296 158.867L138.937 164.598L98.6676 165.943Z" fill="#6C63FF"/>
<path d="M166.248 458.897H174.409L178.292 427.42H166.247L166.248 458.897Z" fill="#9E616A"/>
<path d="M163.584 453.308L176.623 452.53V458.116L189.019 466.676C189.631 467.099 190.092 467.706 190.335 468.41C190.577 469.113 190.589 469.876 190.367 470.586C190.146 471.296 189.703 471.917 189.104 472.358C188.505 472.799 187.78 473.037 187.036 473.037H171.513L168.837 467.511L167.793 473.037H161.94L163.584 453.308Z" fill="#2F2E41"/>
<path d="M63.9595 451.964L71.5421 454.982L86.7928 427.173L75.6019 422.719L63.9595 451.964Z" fill="#9E616A"/>
<path d="M63.5521 445.786L75.954 449.885L73.8879 455.075L82.2388 467.613C82.6513 468.232 82.8551 468.967 82.8204 469.71C82.7856 470.454 82.5142 471.166 82.0458 471.744C81.5773 472.322 80.9364 472.736 80.2164 472.924C79.4965 473.112 78.7353 473.064 78.044 472.789L63.6218 467.049L63.1796 460.926L60.1653 465.673L54.7275 463.508L63.5521 445.786Z" fill="#2F2E41"/>
<path d="M149.797 365.233L136.188 301.727L114.936 372.287L81.2865 439.196L81.1083 439.551L70.4491 433.813C68.9448 406.645 72.5175 381.186 85.5849 358.924L91.7727 297.821C91.9623 295.733 96.578 246.718 111.193 238.026L115.474 228.266L158.045 217.753L158.2 217.927C162.293 222.528 164.998 228.196 165.998 234.272L178.719 311.33L178.726 311.373L175.315 365.129L179.981 444.437H163.099C152.656 424.788 148.221 398.386 149.797 365.233Z" fill="#2F2E41"/>
<path d="M186.444 98.8932C187.093 99.4665 187.608 100.175 187.953 100.969C188.299 101.763 188.466 102.623 188.443 103.488C188.42 104.354 188.207 105.204 187.82 105.978C187.433 106.753 186.881 107.433 186.203 107.971L193.155 127.836L182.548 125.168L177.572 106.714C176.744 105.514 176.384 104.053 176.562 102.606C176.739 101.159 177.441 99.8274 178.534 98.8635C179.628 97.8995 181.037 97.3702 182.495 97.3757C183.952 97.3811 185.357 97.9211 186.444 98.8932H186.444Z" fill="#9E616A"/>
<path d="M102.925 248.942C101.779 248.942 101.128 248.717 100.876 248.235C100.506 247.527 101.148 246.603 101.891 245.532C102.409 244.786 103.924 243.303 103.179 243.212C91.8861 241.833 97.3071 172.211 102.201 163.008C103.196 161.138 102.144 158.269 103.263 155.096C106.322 146.43 110.498 143.766 118.816 138.461C119.491 138.03 120.194 137.58 120.925 137.111C121.87 136.504 121.818 134.489 121.762 132.356C121.7 129.985 121.636 127.532 122.798 126L122.873 125.9L122.995 125.872C125.805 125.222 135.255 124.016 140.852 125.88L140.929 125.907L140.987 125.964C142.316 127.293 142.437 129.868 142.555 132.358C142.65 134.403 142.741 136.333 143.493 137.171C149.244 143.581 155.765 143.456 155.831 143.454L156.155 143.445L156.187 143.766C160.218 151.439 157.061 179.935 159.864 197.636C162.711 215.619 187.024 230.927 166.205 233.645C166.25 233.714 166.275 233.794 166.278 233.877C166.28 233.959 166.26 234.04 166.219 234.112C164.962 236.462 107.247 248.942 102.925 248.942Z" fill="#6C63FF"/>
<path d="M197.04 161.251L185.485 166.983C163.219 175.536 151.582 173.452 145.735 170.201C139.497 166.731 138.415 161.412 138.373 161.188L138.369 161.079L139.794 149.789C139.976 148.355 140.459 146.976 141.214 145.743C141.969 144.51 142.977 143.452 144.171 142.638C145.366 141.824 146.72 141.274 148.144 141.023C149.567 140.772 151.028 140.827 152.429 141.183L179.013 147.948L178.528 135.044L179.58 130.398L177.641 124.75L178.435 113.408L187.971 111.074L197.974 128.989L196.177 133.933L197.87 136.395L197.867 136.509L197.04 161.251Z" fill="#6C63FF"/>
<path d="M139.071 170.304V174.188L130.47 190.057H124.921L133.494 174.438H124.394V170.304L139.071 170.304Z" fill="white"/>
<path d="M520.174 473.787L0.825936 474C0.607312 473.999 0.397865 473.912 0.243498 473.757C0.0891317 473.602 0.00244141 473.393 0.00244141 473.174C0.00244141 472.956 0.0891317 472.746 0.243498 472.591C0.397865 472.436 0.607312 472.349 0.825936 472.348L520.174 472.135C520.393 472.136 520.602 472.223 520.757 472.378C520.911 472.533 520.998 472.742 520.998 472.961C520.998 473.18 520.911 473.389 520.757 473.544C520.602 473.699 520.393 473.786 520.174 473.787Z" fill="#CACACA"/>
<path d="M358.937 73.502C365.326 59.9189 360.156 44.0403 350.924 39.6986C341.692 35.3569 326.164 41.5008 319.775 55.0839C313.861 67.6568 318.266 82.3829 325.848 87.7477C325.721 87.7852 325.602 87.8468 325.497 87.9292L323.676 89.4296C323.537 89.544 323.429 89.692 323.364 89.8595C323.298 90.0271 323.276 90.2086 323.301 90.3868C323.325 90.5651 323.394 90.7342 323.502 90.8781C323.611 91.022 323.753 91.1358 323.918 91.2089L328.513 93.2508C328.677 93.3239 328.858 93.3537 329.037 93.3374C329.216 93.3212 329.388 93.2594 329.537 93.158C329.686 93.0565 329.806 92.9188 329.886 92.7579C329.967 92.5969 330.004 92.4181 329.996 92.2383L329.889 89.8806C329.883 89.7985 329.868 89.7175 329.844 89.639C338.821 92.1057 353.01 86.1022 358.937 73.502Z" fill="#CCCCCC"/>
<path d="M353.704 54.0212C355.154 58.2287 354.933 62.8323 353.087 66.8818C351.241 70.9313 347.911 74.1176 343.784 75.7829C342.844 76.1742 343.594 77.5691 344.528 77.1803C348.951 75.3378 352.514 71.8912 354.503 67.5319C356.491 63.1725 356.758 58.2227 355.249 53.675C354.93 52.7158 353.382 53.0549 353.704 54.0212Z" fill="white"/>
<path d="M471.03 119.016C483.958 111.386 488.624 95.3521 483.439 86.5668C478.253 77.7816 461.96 74.118 449.033 81.7477C437.067 88.8099 432.416 103.46 435.663 112.163C435.536 112.122 435.403 112.106 435.271 112.115L432.92 112.33C432.741 112.346 432.569 112.408 432.42 112.509C432.272 112.611 432.152 112.749 432.071 112.91C431.991 113.071 431.953 113.25 431.962 113.429C431.97 113.609 432.024 113.784 432.119 113.937L434.767 118.211C434.862 118.364 434.994 118.49 435.151 118.578C435.308 118.665 435.485 118.711 435.665 118.711C435.845 118.711 436.022 118.664 436.179 118.577C436.336 118.489 436.468 118.362 436.563 118.209L437.802 116.2C437.843 116.129 437.876 116.054 437.9 115.975C443.931 123.067 459.038 126.093 471.03 119.016Z" fill="#6C63FF"/>
<path d="M477.673 99.9691C476.502 104.263 473.728 107.943 469.923 110.251C466.117 112.559 461.571 113.318 457.222 112.371C456.225 112.165 456.06 113.74 457.051 113.944C461.744 114.912 466.629 114.069 470.727 111.585C474.824 109.102 477.831 105.161 479.145 100.553C479.421 99.5805 477.951 98.9895 477.673 99.9691Z" fill="white"/>
<path d="M388.744 56.6274C387.115 53.0438 386.359 49.1253 386.538 45.1931C386.716 41.261 387.824 37.427 389.77 34.0057C390.325 33.0418 390.878 31.875 392.094 31.6898C392.554 31.6061 393.029 31.6808 393.44 31.9018C393.852 32.1227 394.177 32.4767 394.361 32.906C394.524 33.4771 394.494 34.0858 394.276 34.6383C394.058 35.1907 393.665 35.6563 393.157 35.9631C392.648 36.2698 392.053 36.4008 391.463 36.3358C390.873 36.2709 390.32 36.0135 389.891 35.6034C387.584 33.7451 387.877 30.4745 388.099 27.8418C388.604 21.8429 388.596 15.545 386.044 9.9617C383.682 4.79588 378.862 0.475 373.04 0.00310292C372.021 -0.0794329 371.963 1.50321 372.977 1.58535C378.751 2.05338 383.269 6.81027 385.189 12.0165C386.273 15.1509 386.812 18.4477 386.783 21.7641C386.801 23.4663 386.723 25.1683 386.592 26.8652C386.393 28.5192 386.341 30.1877 386.437 31.851C386.708 34.5655 388.35 37.4758 391.285 37.9095C394.024 38.3142 396.698 35.4499 395.957 32.7281C395.779 32.1397 395.457 31.6048 395.021 31.1714C394.584 30.7379 394.047 30.4196 393.458 30.2447C392.868 30.0699 392.244 30.0441 391.642 30.1697C391.04 30.2953 390.479 30.5683 390.008 30.9642C388.98 31.8228 388.311 33.2974 387.725 34.4757C385.953 38.0208 385 41.9182 384.934 45.8807C384.869 49.8433 385.693 53.77 387.346 57.3717C387.781 58.2943 389.177 57.5476 388.744 56.6274L388.744 56.6274Z" fill="#CCCCCC"/>
<path d="M149.709 130.434C149.112 129.346 148.086 126.231 146.934 126.273C145.756 126.325 144.577 126.224 143.425 125.975C143.3 125.954 143.175 125.926 143.057 125.898C138.193 124.685 133.205 124.033 128.193 123.956C124.149 123.901 119.71 124.386 116.887 127.279C114.064 130.171 114.48 136.136 118.371 137.238C105.367 139.49 91.9996 136.527 81.1652 128.992C74.2775 124.151 68.7563 117.666 62.916 111.604C57.0757 105.535 50.6389 99.702 42.7663 96.7335C34.8868 93.758 25.2524 94.1742 18.9058 99.7159C11.165 106.471 10.5685 118.096 10.5616 128.368C10.5546 132.21 11.7546 131.399 15.1464 133.209C18.2954 134.887 21.604 138.341 23.5253 135.338C25.4467 132.335 25.7865 128.624 26.1819 125.08C26.5703 121.536 27.146 117.804 29.3934 115.037C33.2568 110.279 40.8658 110.23 46.1998 113.248C51.5337 116.265 55.1197 121.543 58.5115 126.647C61.9033 131.745 65.4824 137.037 70.8094 140.075C77.808 144.063 86.5962 143.474 93.9 146.872C98.5404 149.036 102.293 152.664 106.142 156.027C109.999 159.391 114.223 162.63 119.224 163.719C124.218 164.815 130.149 163.164 132.604 158.677C134.817 154.62 133.735 149.425 135.705 145.235C137.224 142.003 140.324 139.86 143.119 137.627C144.271 136.704 144.569 139.881 145.547 138.757C148.37 138.196 151.02 132.827 149.709 130.434Z" fill="#3F3D56"/>
<path d="M130.26 124.696C142.364 124.696 152.177 114.884 152.177 102.78C152.177 90.6765 142.364 80.8645 130.26 80.8645C118.155 80.8645 108.343 90.6765 108.343 102.78C108.343 114.884 118.155 124.696 130.26 124.696Z" fill="#2F2E41"/>
<path d="M132.024 126.505C140.72 126.259 147.569 119.01 147.323 110.315C147.076 101.621 139.827 94.7717 131.132 95.0181C122.437 95.2644 115.587 102.513 115.834 111.208C116.08 119.902 123.329 126.751 132.024 126.505Z" fill="#9E616A"/>
<path d="M131.731 86.7422L125.346 86.9231C121.322 87.0403 117.509 88.7491 114.744 91.6743C111.979 94.5995 110.487 98.5023 110.596 102.526L110.6 102.667L110.717 102.74C114.187 105.036 118.284 106.202 122.443 106.076L122.802 106.066L126.33 105.906C126.923 104.378 127.122 102.725 126.907 101.101C127.44 102.641 127.855 104.219 128.151 105.822L143.98 105.102C144.902 105.056 145.768 104.652 146.396 103.977C147.023 103.301 147.362 102.407 147.34 101.485C147.221 97.4615 145.511 93.6495 142.584 90.8855C139.658 88.1215 135.754 86.6314 131.731 86.7422Z" fill="#2F2E41"/>
<path d="M119.007 82.7902C117.566 84.5672 115.252 85.3076 113.173 86.2701C109.504 88.0048 106.314 90.6081 103.88 93.8543C101.445 97.1005 99.8386 100.892 99.2004 104.899C98.7105 108.162 98.8819 111.521 98.0524 114.712C97.2284 117.903 95.054 121.072 91.8227 121.713C89.6361 122.151 87.4094 121.365 85.319 120.586C84.1694 120.161 83.0197 119.735 81.87 119.307C82.9713 116.298 84.0709 113.29 85.1685 110.282C83.3485 113.143 81.2124 115.791 78.8008 118.175C74.6807 116.648 70.557 115.121 66.4297 113.594C76.4705 113.348 74.4811 103.651 76.4502 93.8091C77.5325 88.4011 87.9423 84.465 89.8587 79.2946C90.8939 76.4903 92.7109 74.0413 95.0946 72.2374C97.4783 70.4335 100.329 69.3502 103.309 69.1157C106.289 68.8812 109.274 69.5054 111.911 70.9144C114.547 72.3233 116.725 74.4581 118.186 77.066C120.271 77.8288 120.421 81.0357 119.007 82.7902Z" fill="#2F2E41"/>
<path d="M120.011 89.3079C124.518 89.3079 128.172 85.6542 128.172 81.1472C128.172 76.6401 124.518 72.9865 120.011 72.9865C115.504 72.9865 111.85 76.6401 111.85 81.1472C111.85 85.6542 115.504 89.3079 120.011 89.3079Z" fill="#2F2E41"/>
</g>
<defs>
<clipPath id="clip0_18_1354">
<rect width="521" height="474" fill="white"/>
</clipPath>
</defs>
</svg>
